M48
; DRILL file {KiCad (6.0.4)} date Fri May 26 09:54:00 2023
; FORMAT={-:-/ absolute / metric / decimal}
; #@! TF.CreationDate,2023-05-26T09:54:00+02:00
; #@! TF.GenerationSoftware,Kicad,Pcbnew,(6.0.4)
; #@! TF.FileFunction,MixedPlating,1,2
FMAT,2
METRIC
; #@! TA.AperFunction,Plated,PTH,ViaDrill
T1C0.700
; #@! TA.AperFunction,Plated,PTH,ComponentDrill
T2C0.800
; #@! TA.AperFunction,Plated,PTH,ComponentDrill
T3C1.000
; #@! TA.AperFunction,Plated,PTH,ComponentDrill
T4C1.100
; #@! TA.AperFunction,Plated,PTH,ComponentDrill
T5C1.500
%
G90
G05
T1
X106.172Y-80.772
X111.76Y-78.232
X118.872Y-83.82
T2
X107.268Y-94.996
X109.22Y-121.412
X112.268Y-94.996
X119.38Y-121.412
X126.532Y-100.584
X128.524Y-109.22
X128.524Y-119.38
X129.032Y-100.584
X147.828Y-117.348
X152.828Y-117.348
T3
X99.06Y-76.2
X99.06Y-124.46
X101.6Y-76.2
X101.6Y-81.28
X101.6Y-83.82
X101.6Y-86.36
X101.6Y-124.46
X104.14Y-76.2
X104.14Y-115.824
X104.14Y-124.46
X106.68Y-76.2
X106.68Y-115.824
X106.68Y-124.46
X109.22Y-76.2
X109.22Y-115.824
X109.22Y-124.46
X111.76Y-76.2
X111.76Y-81.28
X111.76Y-83.82
X111.76Y-86.36
X111.76Y-124.46
X114.3Y-124.46
X116.84Y-76.2
X116.84Y-124.46
X119.38Y-76.2
X120.9Y-124.46
X121.92Y-76.2
X123.44Y-124.46
X124.46Y-76.2
X125.98Y-124.46
X127.0Y-76.2
X128.52Y-124.46
X129.54Y-76.2
X131.06Y-124.46
X132.08Y-76.2
X133.6Y-124.46
X134.62Y-76.2
X136.14Y-124.46
X137.16Y-119.38
X138.68Y-124.46
X139.7Y-119.38
X141.22Y-124.46
X142.24Y-119.38
X143.76Y-124.46
T4
X106.68Y-111.76
X116.84Y-111.76
X139.7Y-111.76
X149.86Y-111.76
T5
X106.68Y-102.11
X111.76Y-102.11
X123.19Y-90.805
X128.27Y-90.805
X139.7Y-102.11
X144.78Y-102.11
T0
M30
