G04 #@! TF.GenerationSoftware,KiCad,Pcbnew,(6.0.4)*
G04 #@! TF.CreationDate,2023-05-26T09:54:04+02:00*
G04 #@! TF.ProjectId,Kicad-TemplateProjet,4b696361-642d-4546-956d-706c61746550,rev?*
G04 #@! TF.SameCoordinates,Original*
G04 #@! TF.FileFunction,Copper,L1,Top*
G04 #@! TF.FilePolarity,Positive*
%FSLAX46Y46*%
G04 Gerber Fmt 4.6, Leading zero omitted, Abs format (unit mm)*
G04 Created by KiCad (PCBNEW (6.0.4)) date 2023-05-26 09:54:04*
%MOMM*%
%LPD*%
G01*
G04 APERTURE LIST*
G04 #@! TA.AperFunction,ComponentPad*
%ADD10R,1.800000X1.800000*%
G04 #@! TD*
G04 #@! TA.AperFunction,ComponentPad*
%ADD11C,1.800000*%
G04 #@! TD*
G04 #@! TA.AperFunction,ComponentPad*
%ADD12R,1.600000X1.600000*%
G04 #@! TD*
G04 #@! TA.AperFunction,ComponentPad*
%ADD13O,1.600000X1.600000*%
G04 #@! TD*
G04 #@! TA.AperFunction,ComponentPad*
%ADD14C,1.600000*%
G04 #@! TD*
G04 #@! TA.AperFunction,ComponentPad*
%ADD15R,3.000000X4.000000*%
G04 #@! TD*
G04 #@! TA.AperFunction,ComponentPad*
%ADD16O,3.000000X4.000000*%
G04 #@! TD*
G04 #@! TA.AperFunction,ComponentPad*
%ADD17R,2.200000X1.800000*%
G04 #@! TD*
G04 #@! TA.AperFunction,ComponentPad*
%ADD18O,2.200000X1.800000*%
G04 #@! TD*
G04 #@! TA.AperFunction,ComponentPad*
%ADD19R,2.200000X2.200000*%
G04 #@! TD*
G04 #@! TA.AperFunction,ComponentPad*
%ADD20O,2.200000X2.200000*%
G04 #@! TD*
G04 #@! TA.AperFunction,ComponentPad*
%ADD21R,2.000000X2.600000*%
G04 #@! TD*
G04 #@! TA.AperFunction,ComponentPad*
%ADD22O,2.000000X2.500000*%
G04 #@! TD*
G04 #@! TA.AperFunction,ViaPad*
%ADD23C,1.800000*%
G04 #@! TD*
G04 #@! TA.AperFunction,Conductor*
%ADD24C,0.700000*%
G04 #@! TD*
G04 #@! TA.AperFunction,Conductor*
%ADD25C,1.600000*%
G04 #@! TD*
G04 APERTURE END LIST*
D10*
X126532000Y-100584000D03*
D11*
X129032000Y-100584000D03*
X112268000Y-94996000D03*
X107268000Y-94996000D03*
X152828000Y-117348000D03*
X147828000Y-117348000D03*
D12*
X134620000Y-76200000D03*
D13*
X132080000Y-76200000D03*
X129540000Y-76200000D03*
X127000000Y-76200000D03*
X124460000Y-76200000D03*
X121920000Y-76200000D03*
X119380000Y-76200000D03*
X116840000Y-76200000D03*
X111760000Y-76200000D03*
X109220000Y-76200000D03*
X106680000Y-76200000D03*
X104140000Y-76200000D03*
X101600000Y-76200000D03*
X99060000Y-76200000D03*
X99060000Y-124460000D03*
X101600000Y-124460000D03*
X104140000Y-124460000D03*
X106680000Y-124460000D03*
X109220000Y-124460000D03*
X111760000Y-124460000D03*
X114300000Y-124460000D03*
X116840000Y-124460000D03*
X120900000Y-124460000D03*
X123440000Y-124460000D03*
X125980000Y-124460000D03*
X128520000Y-124460000D03*
X131060000Y-124460000D03*
X133600000Y-124460000D03*
X136140000Y-124460000D03*
X138680000Y-124460000D03*
X141220000Y-124460000D03*
X143760000Y-124460000D03*
D14*
X128524000Y-119380000D03*
D13*
X128524000Y-109220000D03*
D15*
X106680000Y-102110000D03*
D16*
X111760000Y-102110000D03*
D17*
X111760000Y-81280000D03*
D18*
X111760000Y-83820000D03*
X111760000Y-86360000D03*
D19*
X149860000Y-111760000D03*
D20*
X139700000Y-111760000D03*
D21*
X137160000Y-119380000D03*
D22*
X139700000Y-119380000D03*
X142240000Y-119380000D03*
D15*
X128270000Y-90805000D03*
D16*
X123190000Y-90805000D03*
D19*
X116840000Y-111760000D03*
D20*
X106680000Y-111760000D03*
D21*
X109220000Y-115824000D03*
D22*
X106680000Y-115824000D03*
X104140000Y-115824000D03*
D14*
X109220000Y-121412000D03*
D13*
X119380000Y-121412000D03*
D15*
X139700000Y-102110000D03*
D16*
X144780000Y-102110000D03*
D17*
X101600000Y-81280000D03*
D18*
X101600000Y-83820000D03*
X101600000Y-86360000D03*
D23*
X118872000Y-83820000D03*
X111760000Y-78232000D03*
X106172000Y-80772000D03*
D24*
X124460000Y-78232000D02*
X118872000Y-83820000D01*
X124460000Y-77331370D02*
X124460000Y-78232000D01*
X124460000Y-77331370D02*
X124460000Y-76200000D01*
X142240000Y-120904000D02*
X142240000Y-119380000D01*
X140716000Y-122428000D02*
X142240000Y-120904000D01*
X136652000Y-122428000D02*
X140716000Y-122428000D01*
X136140000Y-122940000D02*
X136652000Y-122428000D01*
X136140000Y-124460000D02*
X136140000Y-122940000D01*
X109220000Y-121412000D02*
X109220000Y-115824000D01*
X105664000Y-121412000D02*
X109220000Y-121412000D01*
X104140000Y-122936000D02*
X105664000Y-121412000D01*
X104140000Y-124460000D02*
X104140000Y-122936000D01*
X111760000Y-76200000D02*
X111760000Y-78232000D01*
X108712000Y-78232000D02*
X106172000Y-80772000D01*
X109220000Y-76200000D02*
X109220000Y-77724000D01*
X109220000Y-77724000D02*
X108712000Y-78232000D01*
D25*
X106680000Y-124455106D02*
X106680000Y-124460000D01*
X128524000Y-124456000D02*
X128520000Y-124460000D01*
D24*
X128524000Y-119380000D02*
X128524000Y-124456000D01*
X128524000Y-119380000D02*
X137160000Y-119380000D01*
G04 #@! TA.AperFunction,Conductor*
G36*
X157433621Y-73528502D02*
G01*
X157480114Y-73582158D01*
X157491500Y-73634500D01*
X157491500Y-126365500D01*
X157471498Y-126433621D01*
X157417842Y-126480114D01*
X157365500Y-126491500D01*
X145981572Y-126491500D01*
X145913451Y-126471498D01*
X145866958Y-126417842D01*
X145856854Y-126347568D01*
X145884909Y-126284677D01*
X146009779Y-126135334D01*
X146012101Y-126132557D01*
X146116838Y-125973110D01*
X146187427Y-125865649D01*
X146187432Y-125865640D01*
X146189414Y-125862623D01*
X146261971Y-125718360D01*
X146332900Y-125577334D01*
X146332903Y-125577326D01*
X146334527Y-125574098D01*
X146445517Y-125270805D01*
X146446362Y-125267283D01*
X146446365Y-125267275D01*
X146520064Y-124960295D01*
X146520065Y-124960291D01*
X146520911Y-124956766D01*
X146559710Y-124636143D01*
X146565246Y-124460000D01*
X146546655Y-124137573D01*
X146491128Y-123819420D01*
X146399402Y-123509757D01*
X146272692Y-123212689D01*
X146112677Y-122932154D01*
X146068736Y-122872335D01*
X145923622Y-122674786D01*
X145923620Y-122674783D01*
X145921479Y-122671869D01*
X145701632Y-122435285D01*
X145634415Y-122377876D01*
X145458805Y-122227892D01*
X145456049Y-122225538D01*
X145187986Y-122045407D01*
X145100363Y-122000181D01*
X144904216Y-121898942D01*
X144900996Y-121897280D01*
X144598883Y-121783121D01*
X144595362Y-121782237D01*
X144595357Y-121782235D01*
X144445433Y-121744577D01*
X144285651Y-121704443D01*
X144265805Y-121701830D01*
X143969055Y-121662762D01*
X143969047Y-121662761D01*
X143965451Y-121662288D01*
X143831081Y-121660177D01*
X143646170Y-121657272D01*
X143646166Y-121657272D01*
X143642528Y-121657215D01*
X143638913Y-121657576D01*
X143638908Y-121657576D01*
X143429056Y-121678522D01*
X143321163Y-121689291D01*
X143196147Y-121716549D01*
X143049387Y-121748548D01*
X143005614Y-121758092D01*
X143002187Y-121759265D01*
X143002181Y-121759267D01*
X142703495Y-121861530D01*
X142703490Y-121861532D01*
X142700064Y-121862705D01*
X142696796Y-121864264D01*
X142696788Y-121864267D01*
X142545483Y-121936436D01*
X142475387Y-121947709D01*
X142433449Y-121934676D01*
X142364216Y-121898942D01*
X142360996Y-121897280D01*
X142058883Y-121783121D01*
X142055362Y-121782237D01*
X142055357Y-121782235D01*
X142051462Y-121781257D01*
X141990266Y-121745263D01*
X141958245Y-121681897D01*
X141965565Y-121611279D01*
X141983003Y-121581307D01*
X142165794Y-121348185D01*
X142165795Y-121348183D01*
X142168034Y-121345328D01*
X142169926Y-121342240D01*
X142169934Y-121342229D01*
X142260592Y-121194287D01*
X142313240Y-121146655D01*
X142353543Y-121134956D01*
X142528831Y-121114675D01*
X142538725Y-121112716D01*
X142762494Y-121049396D01*
X142771938Y-121045884D01*
X142982705Y-120947601D01*
X142991471Y-120942622D01*
X143183802Y-120811913D01*
X143191677Y-120805581D01*
X143360626Y-120645814D01*
X143367387Y-120638305D01*
X143508625Y-120453574D01*
X143514089Y-120445095D01*
X143623978Y-120240153D01*
X143628020Y-120230901D01*
X143703727Y-120011029D01*
X143706236Y-120001257D01*
X143746004Y-119771029D01*
X143746859Y-119763157D01*
X143747936Y-119739449D01*
X143748000Y-119736616D01*
X143748000Y-119652115D01*
X143743525Y-119636876D01*
X143742135Y-119635671D01*
X143734452Y-119634000D01*
X142826500Y-119634000D01*
X142758379Y-119613998D01*
X142711886Y-119560342D01*
X142700500Y-119508000D01*
X142700500Y-119252000D01*
X142720502Y-119183879D01*
X142774158Y-119137386D01*
X142826500Y-119126000D01*
X143729885Y-119126000D01*
X143745124Y-119121525D01*
X143746329Y-119120135D01*
X143748000Y-119112452D01*
X143748000Y-119071544D01*
X143747798Y-119066512D01*
X143733850Y-118893157D01*
X143732238Y-118883204D01*
X143676767Y-118657367D01*
X143673584Y-118647797D01*
X143614840Y-118509406D01*
X147031423Y-118509406D01*
X147036704Y-118516461D01*
X147213080Y-118619527D01*
X147222363Y-118623974D01*
X147429003Y-118702883D01*
X147438901Y-118705759D01*
X147655653Y-118749857D01*
X147665883Y-118751076D01*
X147886914Y-118759182D01*
X147897223Y-118758714D01*
X148116623Y-118730608D01*
X148126688Y-118728468D01*
X148338557Y-118664905D01*
X148348152Y-118661144D01*
X148546778Y-118563838D01*
X148555636Y-118558559D01*
X148613097Y-118517572D01*
X148621497Y-118506874D01*
X148614510Y-118493721D01*
X147840811Y-117720021D01*
X147826868Y-117712408D01*
X147825034Y-117712539D01*
X147818420Y-117716790D01*
X147038180Y-118497031D01*
X147031423Y-118509406D01*
X143614840Y-118509406D01*
X143582720Y-118433735D01*
X143578045Y-118424793D01*
X143454126Y-118228013D01*
X143448086Y-118219940D01*
X143294297Y-118045500D01*
X143287044Y-118038496D01*
X143107346Y-117890890D01*
X143099064Y-117885134D01*
X142898081Y-117768159D01*
X142888976Y-117763797D01*
X142671885Y-117680463D01*
X142662196Y-117677612D01*
X142434570Y-117630059D01*
X142424563Y-117628794D01*
X142364110Y-117626050D01*
X142296966Y-117602979D01*
X142260376Y-117562607D01*
X142222492Y-117496188D01*
X142222484Y-117496176D01*
X142220696Y-117493041D01*
X142092584Y-117318638D01*
X146415893Y-117318638D01*
X146428627Y-117539468D01*
X146430061Y-117549670D01*
X146478685Y-117765439D01*
X146481773Y-117775292D01*
X146564986Y-117980220D01*
X146569634Y-117989421D01*
X146658097Y-118133781D01*
X146668553Y-118143242D01*
X146677331Y-118139458D01*
X147455979Y-117360811D01*
X147462356Y-117349132D01*
X148192408Y-117349132D01*
X148192539Y-117350966D01*
X148196790Y-117357580D01*
X148974307Y-118135096D01*
X148986313Y-118141652D01*
X148998052Y-118132684D01*
X149036010Y-118079859D01*
X149041321Y-118071020D01*
X149139318Y-117872737D01*
X149143117Y-117863142D01*
X149207415Y-117651517D01*
X149209594Y-117641436D01*
X149238702Y-117420338D01*
X149239221Y-117413663D01*
X149240744Y-117351364D01*
X149240550Y-117344646D01*
X149222279Y-117122400D01*
X149220596Y-117112238D01*
X149166710Y-116897708D01*
X149163389Y-116887953D01*
X149075193Y-116685118D01*
X149070315Y-116676020D01*
X148997224Y-116563038D01*
X148986538Y-116553835D01*
X148976973Y-116558238D01*
X148200021Y-117335189D01*
X148192408Y-117349132D01*
X147462356Y-117349132D01*
X147463592Y-117346868D01*
X147463461Y-117345034D01*
X147459210Y-117338420D01*
X146681862Y-116561073D01*
X146670330Y-116554776D01*
X146658048Y-116564399D01*
X146602467Y-116645877D01*
X146597379Y-116654833D01*
X146504252Y-116855459D01*
X146500689Y-116865146D01*
X146441581Y-117078280D01*
X146439650Y-117088400D01*
X146416145Y-117308349D01*
X146415893Y-117318638D01*
X142092584Y-117318638D01*
X142015843Y-117214168D01*
X141780295Y-116960688D01*
X141736960Y-116923676D01*
X141570527Y-116781530D01*
X141517174Y-116735962D01*
X141229967Y-116542967D01*
X140922482Y-116384261D01*
X140598793Y-116261950D01*
X140307218Y-116188711D01*
X147033508Y-116188711D01*
X147040251Y-116201040D01*
X147815189Y-116975979D01*
X147829132Y-116983592D01*
X147830966Y-116983461D01*
X147837580Y-116979210D01*
X148616994Y-116199795D01*
X148624011Y-116186944D01*
X148616237Y-116176274D01*
X148613902Y-116174430D01*
X148605320Y-116168729D01*
X148411678Y-116061833D01*
X148402272Y-116057606D01*
X148193772Y-115983772D01*
X148183809Y-115981140D01*
X147966047Y-115942350D01*
X147955796Y-115941381D01*
X147734616Y-115938679D01*
X147724332Y-115939399D01*
X147505693Y-115972855D01*
X147495666Y-115975244D01*
X147285426Y-116043961D01*
X147275916Y-116047958D01*
X147079725Y-116150089D01*
X147071007Y-116155578D01*
X147041961Y-116177386D01*
X147033508Y-116188711D01*
X140307218Y-116188711D01*
X140263190Y-116177652D01*
X140118981Y-116158667D01*
X139923728Y-116132961D01*
X139923720Y-116132960D01*
X139920124Y-116132487D01*
X139768991Y-116130112D01*
X139577780Y-116127108D01*
X139577776Y-116127108D01*
X139574139Y-116127051D01*
X139570524Y-116127412D01*
X139570520Y-116127412D01*
X139402646Y-116144169D01*
X139229823Y-116161419D01*
X139226286Y-116162190D01*
X139226281Y-116162191D01*
X139116659Y-116186093D01*
X138963555Y-116219475D01*
X138892738Y-116214444D01*
X138883960Y-116210791D01*
X138872988Y-116205732D01*
X138872971Y-116205726D01*
X138868933Y-116203864D01*
X138864668Y-116202588D01*
X138864664Y-116202587D01*
X138601784Y-116123970D01*
X138601782Y-116123969D01*
X138597510Y-116122692D01*
X138593106Y-116122030D01*
X138593102Y-116122029D01*
X138320779Y-116081087D01*
X138320773Y-116081086D01*
X138317358Y-116080573D01*
X138313901Y-116080437D01*
X138313899Y-116080437D01*
X138307837Y-116080199D01*
X138290050Y-116079500D01*
X136029950Y-116079500D01*
X136012163Y-116080199D01*
X136006101Y-116080437D01*
X136006099Y-116080437D01*
X136002642Y-116080573D01*
X135999227Y-116081086D01*
X135999221Y-116081087D01*
X135726898Y-116122029D01*
X135726894Y-116122030D01*
X135722490Y-116122692D01*
X135718218Y-116123969D01*
X135718216Y-116123970D01*
X135590420Y-116162189D01*
X135451067Y-116203864D01*
X135447027Y-116205727D01*
X135447023Y-116205728D01*
X135289289Y-116278445D01*
X135193790Y-116322471D01*
X134955791Y-116476144D01*
X134833472Y-116582288D01*
X134760193Y-116645877D01*
X134741820Y-116661820D01*
X134556144Y-116875791D01*
X134527596Y-116920004D01*
X134415659Y-117093366D01*
X134402471Y-117113790D01*
X134400603Y-117117842D01*
X134289916Y-117357940D01*
X134283864Y-117371067D01*
X134282588Y-117375334D01*
X134206410Y-117630059D01*
X134202692Y-117642490D01*
X134202030Y-117646894D01*
X134202029Y-117646898D01*
X134165347Y-117890890D01*
X134160573Y-117922642D01*
X134159500Y-117949950D01*
X134159500Y-118653500D01*
X134139498Y-118721621D01*
X134085842Y-118768114D01*
X134033500Y-118779500D01*
X131361089Y-118779500D01*
X131292968Y-118759498D01*
X131246475Y-118705842D01*
X131240278Y-118689286D01*
X131189414Y-118517572D01*
X131163402Y-118429757D01*
X131083454Y-118242320D01*
X131038114Y-118136023D01*
X131036692Y-118132689D01*
X130876677Y-117852154D01*
X130874533Y-117849235D01*
X130687622Y-117594786D01*
X130687620Y-117594783D01*
X130685479Y-117591869D01*
X130661240Y-117565784D01*
X130575555Y-117473577D01*
X130465632Y-117355285D01*
X130460378Y-117350797D01*
X130243426Y-117165504D01*
X130220049Y-117145538D01*
X129951986Y-116965407D01*
X129938281Y-116958333D01*
X129668216Y-116818942D01*
X129664996Y-116817280D01*
X129362883Y-116703121D01*
X129359362Y-116702237D01*
X129359357Y-116702235D01*
X129170639Y-116654833D01*
X129049651Y-116624443D01*
X129029805Y-116621830D01*
X128733055Y-116582762D01*
X128733047Y-116582761D01*
X128729451Y-116582288D01*
X128595081Y-116580177D01*
X128410170Y-116577272D01*
X128410166Y-116577272D01*
X128406528Y-116577215D01*
X128402913Y-116577576D01*
X128402908Y-116577576D01*
X128218093Y-116596023D01*
X128085163Y-116609291D01*
X127769614Y-116678092D01*
X127766187Y-116679265D01*
X127766181Y-116679267D01*
X127467495Y-116781530D01*
X127467490Y-116781532D01*
X127464064Y-116782705D01*
X127460796Y-116784264D01*
X127460788Y-116784267D01*
X127388091Y-116818942D01*
X127172562Y-116921744D01*
X126898974Y-117093366D01*
X126896140Y-117095636D01*
X126896135Y-117095640D01*
X126830914Y-117147892D01*
X126646924Y-117295296D01*
X126419754Y-117524858D01*
X126328345Y-117641436D01*
X126231114Y-117765439D01*
X126220474Y-117779008D01*
X126218581Y-117782097D01*
X126218579Y-117782100D01*
X126163037Y-117872737D01*
X126051727Y-118054379D01*
X125915748Y-118347320D01*
X125914608Y-118350767D01*
X125816375Y-118647797D01*
X125814340Y-118653949D01*
X125813604Y-118657504D01*
X125813603Y-118657507D01*
X125754678Y-118942050D01*
X125748848Y-118970201D01*
X125735000Y-119125366D01*
X125727066Y-119214265D01*
X125720138Y-119291885D01*
X125720233Y-119295515D01*
X125720233Y-119295516D01*
X125721382Y-119339398D01*
X125728592Y-119614737D01*
X125729103Y-119618327D01*
X125729103Y-119618328D01*
X125731571Y-119635671D01*
X125774098Y-119934477D01*
X125856053Y-120246869D01*
X125973369Y-120547770D01*
X125975073Y-120550988D01*
X126121191Y-120826956D01*
X126124493Y-120833193D01*
X126126545Y-120836178D01*
X126126550Y-120836187D01*
X126305364Y-121096363D01*
X126305370Y-121096370D01*
X126307421Y-121099355D01*
X126519728Y-121342728D01*
X126703174Y-121509651D01*
X126740094Y-121570289D01*
X126738371Y-121641264D01*
X126698549Y-121700041D01*
X126633271Y-121727958D01*
X126587677Y-121725046D01*
X126546160Y-121714618D01*
X126505651Y-121704443D01*
X126485805Y-121701830D01*
X126189055Y-121662762D01*
X126189047Y-121662761D01*
X126185451Y-121662288D01*
X126051081Y-121660177D01*
X125866170Y-121657272D01*
X125866166Y-121657272D01*
X125862528Y-121657215D01*
X125858913Y-121657576D01*
X125858908Y-121657576D01*
X125649056Y-121678522D01*
X125541163Y-121689291D01*
X125416147Y-121716549D01*
X125269387Y-121748548D01*
X125225614Y-121758092D01*
X125222187Y-121759265D01*
X125222181Y-121759267D01*
X124923495Y-121861530D01*
X124923490Y-121861532D01*
X124920064Y-121862705D01*
X124916796Y-121864264D01*
X124916788Y-121864267D01*
X124765483Y-121936436D01*
X124695387Y-121947709D01*
X124653449Y-121934676D01*
X124584216Y-121898942D01*
X124580996Y-121897280D01*
X124278883Y-121783121D01*
X124275362Y-121782237D01*
X124275357Y-121782235D01*
X124125433Y-121744577D01*
X123965651Y-121704443D01*
X123945805Y-121701830D01*
X123649055Y-121662762D01*
X123649047Y-121662761D01*
X123645451Y-121662288D01*
X123511081Y-121660177D01*
X123326170Y-121657272D01*
X123326166Y-121657272D01*
X123322528Y-121657215D01*
X123318913Y-121657576D01*
X123318908Y-121657576D01*
X123109056Y-121678522D01*
X123001163Y-121689291D01*
X122876147Y-121716549D01*
X122729387Y-121748548D01*
X122685614Y-121758092D01*
X122682187Y-121759265D01*
X122682181Y-121759267D01*
X122383495Y-121861530D01*
X122383490Y-121861532D01*
X122380064Y-121862705D01*
X122376796Y-121864264D01*
X122376788Y-121864267D01*
X122225483Y-121936436D01*
X122155387Y-121947709D01*
X122113449Y-121934676D01*
X122044216Y-121898942D01*
X122040996Y-121897280D01*
X121738883Y-121783121D01*
X121735362Y-121782237D01*
X121735357Y-121782235D01*
X121585433Y-121744577D01*
X121425651Y-121704443D01*
X121405805Y-121701830D01*
X121109055Y-121662762D01*
X121109047Y-121662761D01*
X121105451Y-121662288D01*
X120971081Y-121660177D01*
X120786170Y-121657272D01*
X120786166Y-121657272D01*
X120782528Y-121657215D01*
X120778912Y-121657576D01*
X120778910Y-121657576D01*
X120760907Y-121659373D01*
X120692477Y-121666203D01*
X120672486Y-121666604D01*
X120662332Y-121666000D01*
X118112033Y-121666000D01*
X118098502Y-121669973D01*
X118097273Y-121678522D01*
X118112001Y-121733487D01*
X118110311Y-121804463D01*
X118070517Y-121863259D01*
X118005252Y-121891207D01*
X117945756Y-121883964D01*
X117933921Y-121879492D01*
X117678883Y-121783121D01*
X117675362Y-121782237D01*
X117675357Y-121782235D01*
X117525433Y-121744577D01*
X117365651Y-121704443D01*
X117345805Y-121701830D01*
X117049055Y-121662762D01*
X117049047Y-121662761D01*
X117045451Y-121662288D01*
X116911081Y-121660177D01*
X116726170Y-121657272D01*
X116726166Y-121657272D01*
X116722528Y-121657215D01*
X116718913Y-121657576D01*
X116718908Y-121657576D01*
X116509056Y-121678522D01*
X116401163Y-121689291D01*
X116276147Y-121716549D01*
X116129387Y-121748548D01*
X116085614Y-121758092D01*
X116082187Y-121759265D01*
X116082181Y-121759267D01*
X115783495Y-121861530D01*
X115783490Y-121861532D01*
X115780064Y-121862705D01*
X115776796Y-121864264D01*
X115776788Y-121864267D01*
X115625483Y-121936436D01*
X115555387Y-121947709D01*
X115513449Y-121934676D01*
X115444216Y-121898942D01*
X115440996Y-121897280D01*
X115138883Y-121783121D01*
X115135362Y-121782237D01*
X115135357Y-121782235D01*
X114985433Y-121744577D01*
X114825651Y-121704443D01*
X114805805Y-121701830D01*
X114509055Y-121662762D01*
X114509047Y-121662761D01*
X114505451Y-121662288D01*
X114371081Y-121660177D01*
X114186170Y-121657272D01*
X114186166Y-121657272D01*
X114182528Y-121657215D01*
X114178913Y-121657576D01*
X114178908Y-121657576D01*
X113969056Y-121678522D01*
X113861163Y-121689291D01*
X113736147Y-121716549D01*
X113589387Y-121748548D01*
X113545614Y-121758092D01*
X113542187Y-121759265D01*
X113542181Y-121759267D01*
X113243495Y-121861530D01*
X113243490Y-121861532D01*
X113240064Y-121862705D01*
X113236796Y-121864264D01*
X113236788Y-121864267D01*
X113085483Y-121936436D01*
X113015387Y-121947709D01*
X112973449Y-121934676D01*
X112904216Y-121898942D01*
X112900996Y-121897280D01*
X112598883Y-121783121D01*
X112595362Y-121782237D01*
X112595357Y-121782235D01*
X112445433Y-121744577D01*
X112285651Y-121704443D01*
X112252214Y-121700041D01*
X112130240Y-121683983D01*
X112065313Y-121655261D01*
X112026221Y-121595996D01*
X112020748Y-121555103D01*
X112021207Y-121540526D01*
X112025246Y-121412000D01*
X112023670Y-121384666D01*
X112009592Y-121140503D01*
X118098606Y-121140503D01*
X118098942Y-121154599D01*
X118106884Y-121158000D01*
X119107885Y-121158000D01*
X119123124Y-121153525D01*
X119124329Y-121152135D01*
X119126000Y-121144452D01*
X119126000Y-121139885D01*
X119634000Y-121139885D01*
X119638475Y-121155124D01*
X119639865Y-121156329D01*
X119647548Y-121158000D01*
X120647967Y-121158000D01*
X120661498Y-121154027D01*
X120662727Y-121145478D01*
X120615236Y-120968239D01*
X120611490Y-120957947D01*
X120519414Y-120760489D01*
X120513931Y-120750993D01*
X120388972Y-120572533D01*
X120381916Y-120564125D01*
X120227875Y-120410084D01*
X120219467Y-120403028D01*
X120041007Y-120278069D01*
X120031511Y-120272586D01*
X119834053Y-120180510D01*
X119823761Y-120176764D01*
X119651497Y-120130606D01*
X119637401Y-120130942D01*
X119634000Y-120138884D01*
X119634000Y-121139885D01*
X119126000Y-121139885D01*
X119126000Y-120144033D01*
X119122027Y-120130502D01*
X119113478Y-120129273D01*
X118936239Y-120176764D01*
X118925947Y-120180510D01*
X118728489Y-120272586D01*
X118718993Y-120278069D01*
X118540533Y-120403028D01*
X118532125Y-120410084D01*
X118378084Y-120564125D01*
X118371028Y-120572533D01*
X118246069Y-120750993D01*
X118240586Y-120760489D01*
X118148510Y-120957947D01*
X118144764Y-120968239D01*
X118098606Y-121140503D01*
X112009592Y-121140503D01*
X112006864Y-121093193D01*
X112006863Y-121093188D01*
X112006655Y-121089573D01*
X111985479Y-120968239D01*
X111951752Y-120774993D01*
X111951750Y-120774986D01*
X111951128Y-120771420D01*
X111945078Y-120750993D01*
X111884880Y-120547770D01*
X111859402Y-120461757D01*
X111836432Y-120407903D01*
X111734114Y-120168023D01*
X111732692Y-120164689D01*
X111572677Y-119884154D01*
X111570533Y-119881235D01*
X111383622Y-119626786D01*
X111383620Y-119626783D01*
X111381479Y-119623869D01*
X111369625Y-119611112D01*
X111164099Y-119389940D01*
X111161632Y-119387285D01*
X111154055Y-119380813D01*
X110935340Y-119194014D01*
X110896530Y-119134564D01*
X110896023Y-119063569D01*
X110933980Y-119003570D01*
X110964418Y-118983777D01*
X110986034Y-118973812D01*
X111186210Y-118881529D01*
X111424209Y-118727856D01*
X111638180Y-118542180D01*
X111823856Y-118328209D01*
X111977529Y-118090210D01*
X112023994Y-117989421D01*
X112094272Y-117836977D01*
X112094273Y-117836973D01*
X112096136Y-117832933D01*
X112141734Y-117680463D01*
X112176030Y-117565784D01*
X112176031Y-117565782D01*
X112177308Y-117561510D01*
X112180622Y-117539468D01*
X112218913Y-117284779D01*
X112218914Y-117284773D01*
X112219427Y-117281358D01*
X112220500Y-117254050D01*
X112220500Y-114393950D01*
X112219427Y-114366642D01*
X112217887Y-114356394D01*
X112177971Y-114090898D01*
X112177970Y-114090894D01*
X112177308Y-114086490D01*
X112096136Y-113815067D01*
X112090831Y-113803558D01*
X111979397Y-113561842D01*
X111977529Y-113557790D01*
X111823856Y-113319791D01*
X111638180Y-113105820D01*
X111504768Y-112990050D01*
X113739500Y-112990050D01*
X113740573Y-113017358D01*
X113741086Y-113020773D01*
X113741087Y-113020779D01*
X113765401Y-113182503D01*
X113782692Y-113297510D01*
X113863864Y-113568933D01*
X113865727Y-113572973D01*
X113865728Y-113572977D01*
X113950151Y-113756103D01*
X113982471Y-113826210D01*
X114136144Y-114064209D01*
X114139065Y-114067575D01*
X114281099Y-114231253D01*
X114321820Y-114278180D01*
X114535791Y-114463856D01*
X114773790Y-114617529D01*
X114777842Y-114619397D01*
X115027023Y-114734272D01*
X115027027Y-114734273D01*
X115031067Y-114736136D01*
X115035335Y-114737412D01*
X115035334Y-114737412D01*
X115298216Y-114816030D01*
X115298218Y-114816031D01*
X115302490Y-114817308D01*
X115306894Y-114817970D01*
X115306898Y-114817971D01*
X115579221Y-114858913D01*
X115579227Y-114858914D01*
X115582642Y-114859427D01*
X115586099Y-114859563D01*
X115586101Y-114859563D01*
X115592163Y-114859801D01*
X115609950Y-114860500D01*
X118070050Y-114860500D01*
X118087837Y-114859801D01*
X118093899Y-114859563D01*
X118093901Y-114859563D01*
X118097358Y-114859427D01*
X118100773Y-114858914D01*
X118100779Y-114858913D01*
X118373102Y-114817971D01*
X118373106Y-114817970D01*
X118377510Y-114817308D01*
X118381782Y-114816031D01*
X118381784Y-114816030D01*
X118644666Y-114737412D01*
X118644665Y-114737412D01*
X118648933Y-114736136D01*
X118652973Y-114734273D01*
X118652977Y-114734272D01*
X118902158Y-114619397D01*
X118906210Y-114617529D01*
X119144209Y-114463856D01*
X119358180Y-114278180D01*
X119398902Y-114231253D01*
X119540935Y-114067575D01*
X119543856Y-114064209D01*
X119697529Y-113826210D01*
X119729849Y-113756103D01*
X119814272Y-113572977D01*
X119814273Y-113572973D01*
X119816136Y-113568933D01*
X119897308Y-113297510D01*
X119914599Y-113182503D01*
X119938913Y-113020779D01*
X119938914Y-113020773D01*
X119939427Y-113017358D01*
X119940500Y-112990050D01*
X119940500Y-111716642D01*
X136594918Y-111716642D01*
X136609436Y-112063032D01*
X136662475Y-112405646D01*
X136753375Y-112740212D01*
X136881001Y-113062560D01*
X137043765Y-113368673D01*
X137045750Y-113371572D01*
X137237645Y-113651829D01*
X137237650Y-113651835D01*
X137239636Y-113654736D01*
X137466173Y-113917182D01*
X137720553Y-114152740D01*
X137999605Y-114358475D01*
X138002642Y-114360229D01*
X138002646Y-114360231D01*
X138150326Y-114445494D01*
X138299852Y-114531823D01*
X138617550Y-114670621D01*
X138620906Y-114671660D01*
X138620909Y-114671661D01*
X138758630Y-114714293D01*
X138948739Y-114773142D01*
X138952191Y-114773800D01*
X138952197Y-114773802D01*
X139285842Y-114837448D01*
X139285847Y-114837449D01*
X139289293Y-114838106D01*
X139517780Y-114855687D01*
X139631469Y-114864435D01*
X139631470Y-114864435D01*
X139634966Y-114864704D01*
X139864159Y-114856700D01*
X139977933Y-114852727D01*
X139977937Y-114852727D01*
X139981449Y-114852604D01*
X139984928Y-114852090D01*
X139984931Y-114852090D01*
X140320932Y-114802474D01*
X140320938Y-114802473D01*
X140324424Y-114801958D01*
X140327828Y-114801059D01*
X140327831Y-114801058D01*
X140656226Y-114714293D01*
X140656227Y-114714293D01*
X140659617Y-114713397D01*
X140982848Y-114588023D01*
X141290090Y-114427401D01*
X141577513Y-114233532D01*
X141671305Y-114153709D01*
X141838861Y-114011107D01*
X141838862Y-114011106D01*
X141841534Y-114008832D01*
X141985227Y-113855815D01*
X142076452Y-113758671D01*
X142076456Y-113758666D01*
X142078863Y-113756103D01*
X142080968Y-113753289D01*
X142080974Y-113753282D01*
X142284432Y-113481313D01*
X142286541Y-113478494D01*
X142350973Y-113368673D01*
X142390216Y-113301784D01*
X142461980Y-113179465D01*
X142494769Y-113105820D01*
X142546314Y-112990050D01*
X146759500Y-112990050D01*
X146760573Y-113017358D01*
X146761086Y-113020773D01*
X146761087Y-113020779D01*
X146785401Y-113182503D01*
X146802692Y-113297510D01*
X146883864Y-113568933D01*
X146885727Y-113572973D01*
X146885728Y-113572977D01*
X146970151Y-113756103D01*
X147002471Y-113826210D01*
X147156144Y-114064209D01*
X147159065Y-114067575D01*
X147301099Y-114231253D01*
X147341820Y-114278180D01*
X147555791Y-114463856D01*
X147793790Y-114617529D01*
X147797842Y-114619397D01*
X148047023Y-114734272D01*
X148047027Y-114734273D01*
X148051067Y-114736136D01*
X148055335Y-114737412D01*
X148055334Y-114737412D01*
X148318216Y-114816030D01*
X148318218Y-114816031D01*
X148322490Y-114817308D01*
X148326894Y-114817970D01*
X148326898Y-114817971D01*
X148599221Y-114858913D01*
X148599227Y-114858914D01*
X148602642Y-114859427D01*
X148606099Y-114859563D01*
X148606101Y-114859563D01*
X148612163Y-114859801D01*
X148629950Y-114860500D01*
X150934957Y-114860500D01*
X151003078Y-114880502D01*
X151049571Y-114934158D01*
X151059675Y-115004432D01*
X151030181Y-115069012D01*
X151013738Y-115084833D01*
X150883897Y-115188855D01*
X150648615Y-115426614D01*
X150646374Y-115429472D01*
X150537497Y-115568329D01*
X150442220Y-115689840D01*
X150267447Y-115975043D01*
X150265922Y-115978328D01*
X150265920Y-115978332D01*
X150194364Y-116132487D01*
X150126613Y-116278445D01*
X150099482Y-116360481D01*
X150025970Y-116582762D01*
X150021584Y-116596023D01*
X150020848Y-116599578D01*
X150020847Y-116599581D01*
X149999588Y-116702235D01*
X149953752Y-116923568D01*
X149953429Y-116927190D01*
X149953428Y-116927195D01*
X149936414Y-117117842D01*
X149924018Y-117256739D01*
X149924113Y-117260369D01*
X149924113Y-117260371D01*
X149928041Y-117410389D01*
X149932774Y-117591119D01*
X149933284Y-117594705D01*
X149933285Y-117594713D01*
X149949829Y-117710959D01*
X149979904Y-117922277D01*
X149980823Y-117925780D01*
X149980824Y-117925785D01*
X150037456Y-118141652D01*
X150064785Y-118245823D01*
X150186291Y-118557469D01*
X150187995Y-118560687D01*
X150316682Y-118803734D01*
X150342811Y-118853084D01*
X150344863Y-118856069D01*
X150344868Y-118856078D01*
X150530214Y-119125758D01*
X150530220Y-119125765D01*
X150532271Y-119128750D01*
X150752160Y-119380813D01*
X150999562Y-119605932D01*
X151002520Y-119608057D01*
X151002523Y-119608060D01*
X151040948Y-119635671D01*
X151271200Y-119801124D01*
X151563473Y-119963801D01*
X151872506Y-120091806D01*
X151876000Y-120092801D01*
X151876002Y-120092802D01*
X152190702Y-120182447D01*
X152190707Y-120182448D01*
X152194203Y-120183444D01*
X152197784Y-120184030D01*
X152197791Y-120184032D01*
X152520721Y-120236914D01*
X152520725Y-120236914D01*
X152524301Y-120237500D01*
X152527927Y-120237671D01*
X152854798Y-120253086D01*
X152854799Y-120253086D01*
X152858425Y-120253257D01*
X152866174Y-120252729D01*
X153188514Y-120230754D01*
X153188522Y-120230753D01*
X153192145Y-120230506D01*
X153195721Y-120229843D01*
X153195723Y-120229843D01*
X153517474Y-120170210D01*
X153517478Y-120170209D01*
X153521039Y-120169549D01*
X153840747Y-120071194D01*
X154147031Y-119936745D01*
X154382755Y-119798999D01*
X154432693Y-119769818D01*
X154432695Y-119769817D01*
X154435833Y-119767983D01*
X154590154Y-119652115D01*
X154700416Y-119569328D01*
X154700420Y-119569325D01*
X154703323Y-119567145D01*
X154945957Y-119336894D01*
X155160519Y-119080281D01*
X155166258Y-119071544D01*
X155342177Y-118803734D01*
X155342182Y-118803725D01*
X155344164Y-118800708D01*
X155435289Y-118619527D01*
X155492832Y-118505116D01*
X155492835Y-118505108D01*
X155494459Y-118501880D01*
X155495704Y-118498478D01*
X155608163Y-118191170D01*
X155608166Y-118191160D01*
X155609411Y-118187758D01*
X155610256Y-118184236D01*
X155610259Y-118184228D01*
X155686651Y-117866034D01*
X155686652Y-117866030D01*
X155687498Y-117862505D01*
X155697602Y-117779008D01*
X155727347Y-117533212D01*
X155727348Y-117533205D01*
X155727683Y-117530433D01*
X155727940Y-117522277D01*
X155733328Y-117350797D01*
X155733416Y-117348000D01*
X155732864Y-117338420D01*
X155714370Y-117017680D01*
X155714369Y-117017675D01*
X155714161Y-117014060D01*
X155698368Y-116923568D01*
X155657276Y-116688119D01*
X155657274Y-116688112D01*
X155656652Y-116684546D01*
X155655089Y-116679267D01*
X155578128Y-116419453D01*
X155561650Y-116363825D01*
X155518197Y-116261950D01*
X155472825Y-116155578D01*
X155430415Y-116056150D01*
X155425743Y-116047958D01*
X155266478Y-115768737D01*
X155264687Y-115765597D01*
X155211310Y-115692932D01*
X155068805Y-115498935D01*
X155068803Y-115498932D01*
X155066662Y-115496018D01*
X154838964Y-115250986D01*
X154584612Y-115033749D01*
X154306977Y-114847186D01*
X154303768Y-114845530D01*
X154303760Y-114845525D01*
X154012959Y-114695432D01*
X154009739Y-114693770D01*
X153696838Y-114575535D01*
X153372421Y-114494047D01*
X153232973Y-114475688D01*
X153044391Y-114450861D01*
X153044383Y-114450860D01*
X153040787Y-114450387D01*
X152901863Y-114448205D01*
X152709976Y-114445190D01*
X152709972Y-114445190D01*
X152706334Y-114445133D01*
X152702720Y-114445494D01*
X152702713Y-114445494D01*
X152503909Y-114465337D01*
X152434138Y-114452199D01*
X152382546Y-114403427D01*
X152365513Y-114334503D01*
X152388447Y-114267313D01*
X152396230Y-114257379D01*
X152397081Y-114256399D01*
X152563856Y-114064209D01*
X152717529Y-113826210D01*
X152749849Y-113756103D01*
X152834272Y-113572977D01*
X152834273Y-113572973D01*
X152836136Y-113568933D01*
X152917308Y-113297510D01*
X152934599Y-113182503D01*
X152958913Y-113020779D01*
X152958914Y-113020773D01*
X152959427Y-113017358D01*
X152960500Y-112990050D01*
X152960500Y-110529950D01*
X152959427Y-110502642D01*
X152946271Y-110415132D01*
X152917971Y-110226898D01*
X152917970Y-110226894D01*
X152917308Y-110222490D01*
X152873180Y-110074933D01*
X152837412Y-109955334D01*
X152836136Y-109951067D01*
X152717529Y-109693790D01*
X152563856Y-109455791D01*
X152378180Y-109241820D01*
X152164209Y-109056144D01*
X151926210Y-108902471D01*
X151915883Y-108897710D01*
X151672977Y-108785728D01*
X151672973Y-108785727D01*
X151668933Y-108783864D01*
X151509066Y-108736054D01*
X151401784Y-108703970D01*
X151401782Y-108703969D01*
X151397510Y-108702692D01*
X151393106Y-108702030D01*
X151393102Y-108702029D01*
X151120779Y-108661087D01*
X151120773Y-108661086D01*
X151117358Y-108660573D01*
X151113901Y-108660437D01*
X151113899Y-108660437D01*
X151107837Y-108660199D01*
X151090050Y-108659500D01*
X148629950Y-108659500D01*
X148612163Y-108660199D01*
X148606101Y-108660437D01*
X148606099Y-108660437D01*
X148602642Y-108660573D01*
X148599227Y-108661086D01*
X148599221Y-108661087D01*
X148326898Y-108702029D01*
X148326894Y-108702030D01*
X148322490Y-108702692D01*
X148318218Y-108703969D01*
X148318216Y-108703970D01*
X148210934Y-108736054D01*
X148051067Y-108783864D01*
X148047027Y-108785727D01*
X148047023Y-108785728D01*
X147804117Y-108897710D01*
X147793790Y-108902471D01*
X147555791Y-109056144D01*
X147341820Y-109241820D01*
X147156144Y-109455791D01*
X147002471Y-109693790D01*
X146883864Y-109951067D01*
X146882588Y-109955334D01*
X146846821Y-110074933D01*
X146802692Y-110222490D01*
X146802030Y-110226894D01*
X146802029Y-110226898D01*
X146773730Y-110415132D01*
X146760573Y-110502642D01*
X146759500Y-110529950D01*
X146759500Y-112990050D01*
X142546314Y-112990050D01*
X142601562Y-112865961D01*
X142601564Y-112865956D01*
X142602994Y-112862744D01*
X142707824Y-112532278D01*
X142775164Y-112192186D01*
X142804174Y-111846707D01*
X142805385Y-111760000D01*
X142802765Y-111713124D01*
X142786228Y-111417360D01*
X142786032Y-111413846D01*
X142728214Y-111072007D01*
X142717104Y-111033260D01*
X142633621Y-110742122D01*
X142632652Y-110738742D01*
X142546083Y-110528709D01*
X142501875Y-110421452D01*
X142501871Y-110421444D01*
X142500537Y-110418207D01*
X142333516Y-110114397D01*
X142133670Y-109831097D01*
X141903490Y-109571839D01*
X141801342Y-109479865D01*
X141648464Y-109342213D01*
X141648461Y-109342211D01*
X141645846Y-109339856D01*
X141363948Y-109138037D01*
X141360885Y-109136325D01*
X141360880Y-109136322D01*
X141205878Y-109049694D01*
X141061311Y-108968898D01*
X141058066Y-108967534D01*
X141058062Y-108967532D01*
X140744948Y-108835912D01*
X140741706Y-108834549D01*
X140738343Y-108833559D01*
X140738334Y-108833556D01*
X140508616Y-108765947D01*
X140409117Y-108736663D01*
X140136065Y-108688516D01*
X140071150Y-108677070D01*
X140071148Y-108677070D01*
X140067690Y-108676460D01*
X140064181Y-108676239D01*
X140064179Y-108676239D01*
X139725198Y-108654912D01*
X139725192Y-108654912D01*
X139721680Y-108654691D01*
X139623499Y-108659493D01*
X139378906Y-108671455D01*
X139378897Y-108671456D01*
X139375399Y-108671627D01*
X139371931Y-108672189D01*
X139371928Y-108672189D01*
X139036639Y-108726494D01*
X139036636Y-108726495D01*
X139033164Y-108727057D01*
X139029777Y-108728003D01*
X139029771Y-108728004D01*
X138834274Y-108782588D01*
X138699241Y-108820290D01*
X138538516Y-108885227D01*
X138381055Y-108948845D01*
X138381051Y-108948847D01*
X138377791Y-108950164D01*
X138374704Y-108951833D01*
X138374700Y-108951835D01*
X138343143Y-108968898D01*
X138072822Y-109115060D01*
X137788134Y-109312923D01*
X137785492Y-109315236D01*
X137785488Y-109315239D01*
X137584151Y-109491497D01*
X137527276Y-109541287D01*
X137293499Y-109797306D01*
X137089717Y-110077787D01*
X136918470Y-110379237D01*
X136781893Y-110697896D01*
X136681687Y-111029793D01*
X136619102Y-111370792D01*
X136594918Y-111716642D01*
X119940500Y-111716642D01*
X119940500Y-110529950D01*
X119939427Y-110502642D01*
X119926271Y-110415132D01*
X119897971Y-110226898D01*
X119897970Y-110226894D01*
X119897308Y-110222490D01*
X119853180Y-110074933D01*
X119817412Y-109955334D01*
X119816136Y-109951067D01*
X119697529Y-109693790D01*
X119563699Y-109486522D01*
X127241273Y-109486522D01*
X127288764Y-109663761D01*
X127292510Y-109674053D01*
X127384586Y-109871511D01*
X127390069Y-109881007D01*
X127515028Y-110059467D01*
X127522084Y-110067875D01*
X127676125Y-110221916D01*
X127684533Y-110228972D01*
X127862993Y-110353931D01*
X127872489Y-110359414D01*
X128069947Y-110451490D01*
X128080239Y-110455236D01*
X128252503Y-110501394D01*
X128266599Y-110501058D01*
X128270000Y-110493116D01*
X128270000Y-110487967D01*
X128778000Y-110487967D01*
X128781973Y-110501498D01*
X128790522Y-110502727D01*
X128967761Y-110455236D01*
X128978053Y-110451490D01*
X129175511Y-110359414D01*
X129185007Y-110353931D01*
X129363467Y-110228972D01*
X129371875Y-110221916D01*
X129525916Y-110067875D01*
X129532972Y-110059467D01*
X129657931Y-109881007D01*
X129663414Y-109871511D01*
X129755490Y-109674053D01*
X129759236Y-109663761D01*
X129805394Y-109491497D01*
X129805058Y-109477401D01*
X129797116Y-109474000D01*
X128796115Y-109474000D01*
X128780876Y-109478475D01*
X128779671Y-109479865D01*
X128778000Y-109487548D01*
X128778000Y-110487967D01*
X128270000Y-110487967D01*
X128270000Y-109492115D01*
X128265525Y-109476876D01*
X128264135Y-109475671D01*
X128256452Y-109474000D01*
X127256033Y-109474000D01*
X127242502Y-109477973D01*
X127241273Y-109486522D01*
X119563699Y-109486522D01*
X119543856Y-109455791D01*
X119358180Y-109241820D01*
X119144209Y-109056144D01*
X118977501Y-108948503D01*
X127242606Y-108948503D01*
X127242942Y-108962599D01*
X127250884Y-108966000D01*
X128251885Y-108966000D01*
X128267124Y-108961525D01*
X128268329Y-108960135D01*
X128270000Y-108952452D01*
X128270000Y-108947885D01*
X128778000Y-108947885D01*
X128782475Y-108963124D01*
X128783865Y-108964329D01*
X128791548Y-108966000D01*
X129791967Y-108966000D01*
X129805498Y-108962027D01*
X129806727Y-108953478D01*
X129759236Y-108776239D01*
X129755490Y-108765947D01*
X129663414Y-108568489D01*
X129657931Y-108558993D01*
X129532972Y-108380533D01*
X129525916Y-108372125D01*
X129371875Y-108218084D01*
X129363467Y-108211028D01*
X129185007Y-108086069D01*
X129175511Y-108080586D01*
X128978053Y-107988510D01*
X128967761Y-107984764D01*
X128795497Y-107938606D01*
X128781401Y-107938942D01*
X128778000Y-107946884D01*
X128778000Y-108947885D01*
X128270000Y-108947885D01*
X128270000Y-107952033D01*
X128266027Y-107938502D01*
X128257478Y-107937273D01*
X128080239Y-107984764D01*
X128069947Y-107988510D01*
X127872489Y-108080586D01*
X127862993Y-108086069D01*
X127684533Y-108211028D01*
X127676125Y-108218084D01*
X127522084Y-108372125D01*
X127515028Y-108380533D01*
X127390069Y-108558993D01*
X127384586Y-108568489D01*
X127292510Y-108765947D01*
X127288764Y-108776239D01*
X127242606Y-108948503D01*
X118977501Y-108948503D01*
X118906210Y-108902471D01*
X118895883Y-108897710D01*
X118652977Y-108785728D01*
X118652973Y-108785727D01*
X118648933Y-108783864D01*
X118489066Y-108736054D01*
X118381784Y-108703970D01*
X118381782Y-108703969D01*
X118377510Y-108702692D01*
X118373106Y-108702030D01*
X118373102Y-108702029D01*
X118100779Y-108661087D01*
X118100773Y-108661086D01*
X118097358Y-108660573D01*
X118093901Y-108660437D01*
X118093899Y-108660437D01*
X118087837Y-108660199D01*
X118070050Y-108659500D01*
X115609950Y-108659500D01*
X115592163Y-108660199D01*
X115586101Y-108660437D01*
X115586099Y-108660437D01*
X115582642Y-108660573D01*
X115579227Y-108661086D01*
X115579221Y-108661087D01*
X115306898Y-108702029D01*
X115306894Y-108702030D01*
X115302490Y-108702692D01*
X115298218Y-108703969D01*
X115298216Y-108703970D01*
X115190934Y-108736054D01*
X115031067Y-108783864D01*
X115027027Y-108785727D01*
X115027023Y-108785728D01*
X114784117Y-108897710D01*
X114773790Y-108902471D01*
X114535791Y-109056144D01*
X114321820Y-109241820D01*
X114136144Y-109455791D01*
X113982471Y-109693790D01*
X113863864Y-109951067D01*
X113862588Y-109955334D01*
X113826821Y-110074933D01*
X113782692Y-110222490D01*
X113782030Y-110226894D01*
X113782029Y-110226898D01*
X113753730Y-110415132D01*
X113740573Y-110502642D01*
X113739500Y-110529950D01*
X113739500Y-112990050D01*
X111504768Y-112990050D01*
X111424209Y-112920144D01*
X111186210Y-112766471D01*
X111175883Y-112761710D01*
X110932977Y-112649728D01*
X110932973Y-112649727D01*
X110928933Y-112647864D01*
X110837249Y-112620445D01*
X110661784Y-112567970D01*
X110661782Y-112567969D01*
X110657510Y-112566692D01*
X110653106Y-112566030D01*
X110653102Y-112566029D01*
X110380779Y-112525087D01*
X110380773Y-112525086D01*
X110377358Y-112524573D01*
X110373901Y-112524437D01*
X110373899Y-112524437D01*
X110367837Y-112524199D01*
X110350050Y-112523500D01*
X109842957Y-112523500D01*
X109774836Y-112503498D01*
X109728343Y-112449842D01*
X109719357Y-112373027D01*
X109754478Y-112195653D01*
X109754479Y-112195645D01*
X109755164Y-112192186D01*
X109784174Y-111846707D01*
X109785385Y-111760000D01*
X109782765Y-111713124D01*
X109766228Y-111417360D01*
X109766032Y-111413846D01*
X109708214Y-111072007D01*
X109697104Y-111033260D01*
X109613621Y-110742122D01*
X109612652Y-110738742D01*
X109526083Y-110528709D01*
X109481875Y-110421452D01*
X109481871Y-110421444D01*
X109480537Y-110418207D01*
X109313516Y-110114397D01*
X109113670Y-109831097D01*
X108883490Y-109571839D01*
X108781342Y-109479865D01*
X108628464Y-109342213D01*
X108628461Y-109342211D01*
X108625846Y-109339856D01*
X108343948Y-109138037D01*
X108340885Y-109136325D01*
X108340880Y-109136322D01*
X108185878Y-109049694D01*
X108041311Y-108968898D01*
X108038066Y-108967534D01*
X108038062Y-108967532D01*
X107724948Y-108835912D01*
X107721706Y-108834549D01*
X107718343Y-108833559D01*
X107718334Y-108833556D01*
X107488616Y-108765947D01*
X107389117Y-108736663D01*
X107116065Y-108688516D01*
X107051150Y-108677070D01*
X107051148Y-108677070D01*
X107047690Y-108676460D01*
X107044181Y-108676239D01*
X107044179Y-108676239D01*
X106705198Y-108654912D01*
X106705192Y-108654912D01*
X106701680Y-108654691D01*
X106603499Y-108659493D01*
X106358906Y-108671455D01*
X106358897Y-108671456D01*
X106355399Y-108671627D01*
X106351931Y-108672189D01*
X106351928Y-108672189D01*
X106016639Y-108726494D01*
X106016636Y-108726495D01*
X106013164Y-108727057D01*
X106009777Y-108728003D01*
X106009771Y-108728004D01*
X105814274Y-108782588D01*
X105679241Y-108820290D01*
X105518516Y-108885227D01*
X105361055Y-108948845D01*
X105361051Y-108948847D01*
X105357791Y-108950164D01*
X105354704Y-108951833D01*
X105354700Y-108951835D01*
X105323143Y-108968898D01*
X105052822Y-109115060D01*
X104768134Y-109312923D01*
X104765492Y-109315236D01*
X104765488Y-109315239D01*
X104564151Y-109491497D01*
X104507276Y-109541287D01*
X104273499Y-109797306D01*
X104069717Y-110077787D01*
X103898470Y-110379237D01*
X103761893Y-110697896D01*
X103661687Y-111029793D01*
X103599102Y-111370792D01*
X103574918Y-111716642D01*
X103589436Y-112063032D01*
X103642475Y-112405646D01*
X103733375Y-112740212D01*
X103861001Y-113062560D01*
X104023765Y-113368673D01*
X104025750Y-113371572D01*
X104217645Y-113651829D01*
X104217650Y-113651835D01*
X104219636Y-113654736D01*
X104231662Y-113668668D01*
X104261030Y-113733303D01*
X104250793Y-113803558D01*
X104235433Y-113828743D01*
X104214206Y-113855815D01*
X104211966Y-113858672D01*
X104210074Y-113861760D01*
X104210066Y-113861771D01*
X104119408Y-114009713D01*
X104066760Y-114057345D01*
X104026457Y-114069044D01*
X103851169Y-114089325D01*
X103841275Y-114091284D01*
X103617506Y-114154604D01*
X103608062Y-114158116D01*
X103397295Y-114256399D01*
X103388529Y-114261378D01*
X103196198Y-114392087D01*
X103188323Y-114398419D01*
X103019374Y-114558186D01*
X103012613Y-114565695D01*
X102871375Y-114750426D01*
X102865911Y-114758905D01*
X102756022Y-114963847D01*
X102751980Y-114973099D01*
X102676273Y-115192971D01*
X102673764Y-115202743D01*
X102633996Y-115432971D01*
X102633141Y-115440843D01*
X102632064Y-115464551D01*
X102632000Y-115467384D01*
X102632000Y-115551885D01*
X102636475Y-115567124D01*
X102637865Y-115568329D01*
X102645548Y-115570000D01*
X103553500Y-115570000D01*
X103621621Y-115590002D01*
X103668114Y-115643658D01*
X103679500Y-115696000D01*
X103679500Y-115952000D01*
X103659498Y-116020121D01*
X103605842Y-116066614D01*
X103553500Y-116078000D01*
X102650115Y-116078000D01*
X102634876Y-116082475D01*
X102633671Y-116083865D01*
X102632000Y-116091548D01*
X102632000Y-116132456D01*
X102632202Y-116137488D01*
X102646150Y-116310843D01*
X102647762Y-116320796D01*
X102703233Y-116546633D01*
X102706416Y-116556203D01*
X102797280Y-116770265D01*
X102801955Y-116779207D01*
X102925874Y-116975987D01*
X102931914Y-116984060D01*
X103085703Y-117158500D01*
X103092956Y-117165504D01*
X103272654Y-117313110D01*
X103280936Y-117318866D01*
X103481919Y-117435841D01*
X103491024Y-117440203D01*
X103708115Y-117523537D01*
X103717804Y-117526388D01*
X103945430Y-117573941D01*
X103955437Y-117575206D01*
X104015890Y-117577950D01*
X104083034Y-117601021D01*
X104119624Y-117641393D01*
X104157508Y-117707812D01*
X104157516Y-117707824D01*
X104159304Y-117710959D01*
X104161443Y-117713871D01*
X104161445Y-117713874D01*
X104201322Y-117768159D01*
X104364157Y-117989832D01*
X104599705Y-118243312D01*
X104602459Y-118245664D01*
X104602462Y-118245667D01*
X104721483Y-118347320D01*
X104862826Y-118468038D01*
X105150033Y-118661033D01*
X105457518Y-118819739D01*
X105781207Y-118942050D01*
X106116810Y-119026348D01*
X106242848Y-119042941D01*
X106456272Y-119071039D01*
X106456280Y-119071040D01*
X106459876Y-119071513D01*
X106611009Y-119073888D01*
X106802220Y-119076892D01*
X106802224Y-119076892D01*
X106805861Y-119076949D01*
X106809476Y-119076588D01*
X106809480Y-119076588D01*
X107001322Y-119057439D01*
X107150177Y-119042581D01*
X107153714Y-119041810D01*
X107153719Y-119041809D01*
X107296152Y-119010753D01*
X107378388Y-118992823D01*
X107449205Y-118997854D01*
X107506061Y-119040374D01*
X107530904Y-119106882D01*
X107515845Y-119176264D01*
X107484009Y-119214265D01*
X107345767Y-119325018D01*
X107342924Y-119327296D01*
X107115754Y-119556858D01*
X106916474Y-119811008D01*
X106914581Y-119814097D01*
X106914579Y-119814100D01*
X106838660Y-119937990D01*
X106747727Y-120086379D01*
X106611748Y-120379320D01*
X106610608Y-120382767D01*
X106526097Y-120638305D01*
X106510340Y-120685949D01*
X106509602Y-120689513D01*
X106505142Y-120711049D01*
X106471743Y-120773699D01*
X106409774Y-120808346D01*
X106381760Y-120811500D01*
X105711619Y-120811500D01*
X105695173Y-120810422D01*
X105672188Y-120807396D01*
X105664000Y-120806318D01*
X105624639Y-120811500D01*
X105507238Y-120826956D01*
X105361159Y-120887464D01*
X105354608Y-120892491D01*
X105255891Y-120968239D01*
X105235718Y-120983718D01*
X105230692Y-120990268D01*
X105230689Y-120990271D01*
X105216580Y-121008659D01*
X105205714Y-121021050D01*
X104878580Y-121348185D01*
X104582934Y-121643831D01*
X104520621Y-121677856D01*
X104477392Y-121679658D01*
X104349055Y-121662762D01*
X104349047Y-121662761D01*
X104345451Y-121662288D01*
X104219373Y-121660307D01*
X104026170Y-121657272D01*
X104026166Y-121657272D01*
X104022528Y-121657215D01*
X104018913Y-121657576D01*
X104018908Y-121657576D01*
X103809056Y-121678522D01*
X103701163Y-121689291D01*
X103576147Y-121716549D01*
X103429387Y-121748548D01*
X103385614Y-121758092D01*
X103382187Y-121759265D01*
X103382181Y-121759267D01*
X103083495Y-121861530D01*
X103083490Y-121861532D01*
X103080064Y-121862705D01*
X103076796Y-121864264D01*
X103076788Y-121864267D01*
X102925483Y-121936436D01*
X102855387Y-121947709D01*
X102813449Y-121934676D01*
X102744216Y-121898942D01*
X102740996Y-121897280D01*
X102438883Y-121783121D01*
X102435362Y-121782237D01*
X102435357Y-121782235D01*
X102285433Y-121744577D01*
X102125651Y-121704443D01*
X102105805Y-121701830D01*
X101809055Y-121662762D01*
X101809047Y-121662761D01*
X101805451Y-121662288D01*
X101671081Y-121660177D01*
X101486170Y-121657272D01*
X101486166Y-121657272D01*
X101482528Y-121657215D01*
X101478913Y-121657576D01*
X101478908Y-121657576D01*
X101269056Y-121678522D01*
X101161163Y-121689291D01*
X101036147Y-121716549D01*
X100889387Y-121748548D01*
X100845614Y-121758092D01*
X100842187Y-121759265D01*
X100842181Y-121759267D01*
X100543495Y-121861530D01*
X100543490Y-121861532D01*
X100540064Y-121862705D01*
X100536796Y-121864264D01*
X100536788Y-121864267D01*
X100385483Y-121936436D01*
X100315387Y-121947709D01*
X100273449Y-121934676D01*
X100204216Y-121898942D01*
X100200996Y-121897280D01*
X99898883Y-121783121D01*
X99895362Y-121782237D01*
X99895357Y-121782235D01*
X99745433Y-121744577D01*
X99585651Y-121704443D01*
X99565805Y-121701830D01*
X99269055Y-121662762D01*
X99269047Y-121662761D01*
X99265451Y-121662288D01*
X99131081Y-121660177D01*
X98946170Y-121657272D01*
X98946166Y-121657272D01*
X98942528Y-121657215D01*
X98938913Y-121657576D01*
X98938908Y-121657576D01*
X98729056Y-121678522D01*
X98621163Y-121689291D01*
X98496147Y-121716549D01*
X98349387Y-121748548D01*
X98305614Y-121758092D01*
X98302187Y-121759265D01*
X98302181Y-121759267D01*
X98003495Y-121861530D01*
X98003490Y-121861532D01*
X98000064Y-121862705D01*
X97996796Y-121864264D01*
X97996788Y-121864267D01*
X97924091Y-121898942D01*
X97708562Y-122001744D01*
X97434974Y-122173366D01*
X97432140Y-122175636D01*
X97432135Y-122175640D01*
X97366914Y-122227892D01*
X97182924Y-122375296D01*
X96955754Y-122604858D01*
X96756474Y-122859008D01*
X96754582Y-122862096D01*
X96754574Y-122862107D01*
X96741933Y-122882736D01*
X96689286Y-122930368D01*
X96619244Y-122941975D01*
X96554046Y-122913872D01*
X96514392Y-122854982D01*
X96508500Y-122816902D01*
X96508500Y-104240050D01*
X103179500Y-104240050D01*
X103180573Y-104267358D01*
X103222692Y-104547510D01*
X103303864Y-104818933D01*
X103422471Y-105076210D01*
X103576144Y-105314209D01*
X103761820Y-105528180D01*
X103975791Y-105713856D01*
X104213790Y-105867529D01*
X104217842Y-105869397D01*
X104467023Y-105984272D01*
X104467027Y-105984273D01*
X104471067Y-105986136D01*
X104475335Y-105987412D01*
X104475334Y-105987412D01*
X104738216Y-106066030D01*
X104738218Y-106066031D01*
X104742490Y-106067308D01*
X104746894Y-106067970D01*
X104746898Y-106067971D01*
X105019221Y-106108913D01*
X105019227Y-106108914D01*
X105022642Y-106109427D01*
X105026099Y-106109563D01*
X105026101Y-106109563D01*
X105032163Y-106109801D01*
X105049950Y-106110500D01*
X108310050Y-106110500D01*
X108327837Y-106109801D01*
X108333899Y-106109563D01*
X108333901Y-106109563D01*
X108337358Y-106109427D01*
X108340773Y-106108914D01*
X108340779Y-106108913D01*
X108613102Y-106067971D01*
X108613106Y-106067970D01*
X108617510Y-106067308D01*
X108621782Y-106066031D01*
X108621784Y-106066030D01*
X108884666Y-105987412D01*
X108884665Y-105987412D01*
X108888933Y-105986136D01*
X108892973Y-105984273D01*
X108892977Y-105984272D01*
X109142158Y-105869397D01*
X109146210Y-105867529D01*
X109384209Y-105713856D01*
X109598180Y-105528180D01*
X109607196Y-105517790D01*
X109666951Y-105479451D01*
X109737948Y-105479504D01*
X109769222Y-105493578D01*
X109914333Y-105584429D01*
X110060515Y-105675951D01*
X110395938Y-105839186D01*
X110399077Y-105840319D01*
X110399086Y-105840323D01*
X110587183Y-105908227D01*
X110746808Y-105965853D01*
X110750056Y-105966648D01*
X110750060Y-105966649D01*
X111105898Y-106053722D01*
X111105902Y-106053723D01*
X111109152Y-106054518D01*
X111478865Y-106104176D01*
X111851762Y-106114267D01*
X111855103Y-106114001D01*
X111855107Y-106114001D01*
X112110990Y-106093637D01*
X112223621Y-106084674D01*
X112226900Y-106084057D01*
X112226903Y-106084057D01*
X112586945Y-106016352D01*
X112586953Y-106016350D01*
X112590229Y-106015734D01*
X112947435Y-105908227D01*
X113291195Y-105763371D01*
X113294122Y-105761752D01*
X113294130Y-105761748D01*
X113614680Y-105584429D01*
X113614686Y-105584425D01*
X113617615Y-105582805D01*
X113620362Y-105580878D01*
X113920242Y-105370511D01*
X113920245Y-105370509D01*
X113923000Y-105368576D01*
X114203890Y-105123107D01*
X114457106Y-104849180D01*
X114679779Y-104549896D01*
X114848581Y-104263899D01*
X114862657Y-104240050D01*
X136199500Y-104240050D01*
X136200573Y-104267358D01*
X136242692Y-104547510D01*
X136323864Y-104818933D01*
X136442471Y-105076210D01*
X136596144Y-105314209D01*
X136781820Y-105528180D01*
X136995791Y-105713856D01*
X137233790Y-105867529D01*
X137237842Y-105869397D01*
X137487023Y-105984272D01*
X137487027Y-105984273D01*
X137491067Y-105986136D01*
X137495335Y-105987412D01*
X137495334Y-105987412D01*
X137758216Y-106066030D01*
X137758218Y-106066031D01*
X137762490Y-106067308D01*
X137766894Y-106067970D01*
X137766898Y-106067971D01*
X138039221Y-106108913D01*
X138039227Y-106108914D01*
X138042642Y-106109427D01*
X138046099Y-106109563D01*
X138046101Y-106109563D01*
X138052163Y-106109801D01*
X138069950Y-106110500D01*
X141330050Y-106110500D01*
X141347837Y-106109801D01*
X141353899Y-106109563D01*
X141353901Y-106109563D01*
X141357358Y-106109427D01*
X141360773Y-106108914D01*
X141360779Y-106108913D01*
X141633102Y-106067971D01*
X141633106Y-106067970D01*
X141637510Y-106067308D01*
X141641782Y-106066031D01*
X141641784Y-106066030D01*
X141904666Y-105987412D01*
X141904665Y-105987412D01*
X141908933Y-105986136D01*
X141912973Y-105984273D01*
X141912977Y-105984272D01*
X142162158Y-105869397D01*
X142166210Y-105867529D01*
X142404209Y-105713856D01*
X142618180Y-105528180D01*
X142627196Y-105517790D01*
X142686951Y-105479451D01*
X142757948Y-105479504D01*
X142789222Y-105493578D01*
X142934333Y-105584429D01*
X143080515Y-105675951D01*
X143415938Y-105839186D01*
X143419077Y-105840319D01*
X143419086Y-105840323D01*
X143607183Y-105908227D01*
X143766808Y-105965853D01*
X143770056Y-105966648D01*
X143770060Y-105966649D01*
X144125898Y-106053722D01*
X144125902Y-106053723D01*
X144129152Y-106054518D01*
X144498865Y-106104176D01*
X144871762Y-106114267D01*
X144875103Y-106114001D01*
X144875107Y-106114001D01*
X145130990Y-106093637D01*
X145243621Y-106084674D01*
X145246900Y-106084057D01*
X145246903Y-106084057D01*
X145606945Y-106016352D01*
X145606953Y-106016350D01*
X145610229Y-106015734D01*
X145967435Y-105908227D01*
X146311195Y-105763371D01*
X146314122Y-105761752D01*
X146314130Y-105761748D01*
X146634680Y-105584429D01*
X146634686Y-105584425D01*
X146637615Y-105582805D01*
X146640362Y-105580878D01*
X146940242Y-105370511D01*
X146940245Y-105370509D01*
X146943000Y-105368576D01*
X147223890Y-105123107D01*
X147477106Y-104849180D01*
X147699779Y-104549896D01*
X147868581Y-104263899D01*
X147887682Y-104231536D01*
X147887684Y-104231531D01*
X147889388Y-104228645D01*
X148043786Y-103889064D01*
X148161225Y-103534999D01*
X148172190Y-103484500D01*
X148239663Y-103173736D01*
X148240375Y-103170458D01*
X148280338Y-102799572D01*
X148280500Y-102793586D01*
X148280500Y-101516761D01*
X148269926Y-101318304D01*
X148265798Y-101240827D01*
X148265797Y-101240818D01*
X148265620Y-101237495D01*
X148206300Y-100869208D01*
X148204161Y-100861360D01*
X148109066Y-100512555D01*
X148109066Y-100512554D01*
X148108181Y-100509309D01*
X147972372Y-100161876D01*
X147877224Y-99978709D01*
X147801956Y-99833811D01*
X147801954Y-99833808D01*
X147800413Y-99830841D01*
X147594251Y-99519953D01*
X147406668Y-99293606D01*
X147358362Y-99235317D01*
X147358357Y-99235311D01*
X147356220Y-99232733D01*
X147353811Y-99230386D01*
X147091417Y-98974773D01*
X147091408Y-98974765D01*
X147089015Y-98972434D01*
X146857424Y-98790516D01*
X146798301Y-98744074D01*
X146798299Y-98744072D01*
X146795663Y-98742002D01*
X146479485Y-98544049D01*
X146144062Y-98380814D01*
X146140923Y-98379681D01*
X146140914Y-98379677D01*
X145825526Y-98265820D01*
X145793192Y-98254147D01*
X145789944Y-98253352D01*
X145789940Y-98253351D01*
X145434102Y-98166278D01*
X145434098Y-98166277D01*
X145430848Y-98165482D01*
X145061135Y-98115824D01*
X144688238Y-98105733D01*
X144684897Y-98105999D01*
X144684893Y-98105999D01*
X144429010Y-98126363D01*
X144316379Y-98135326D01*
X144313100Y-98135943D01*
X144313097Y-98135943D01*
X143953055Y-98203648D01*
X143953047Y-98203650D01*
X143949771Y-98204266D01*
X143592565Y-98311773D01*
X143248805Y-98456629D01*
X143245878Y-98458248D01*
X143245870Y-98458252D01*
X142925320Y-98635571D01*
X142925314Y-98635575D01*
X142922385Y-98637195D01*
X142796862Y-98725250D01*
X142729610Y-98747995D01*
X142660735Y-98730771D01*
X142629340Y-98704680D01*
X142618180Y-98691820D01*
X142404209Y-98506144D01*
X142166210Y-98352471D01*
X142155883Y-98347710D01*
X141912977Y-98235728D01*
X141912973Y-98235727D01*
X141908933Y-98233864D01*
X141682939Y-98166278D01*
X141641784Y-98153970D01*
X141641782Y-98153969D01*
X141637510Y-98152692D01*
X141633106Y-98152030D01*
X141633102Y-98152029D01*
X141360779Y-98111087D01*
X141360773Y-98111086D01*
X141357358Y-98110573D01*
X141353901Y-98110437D01*
X141353899Y-98110437D01*
X141347837Y-98110199D01*
X141330050Y-98109500D01*
X138069950Y-98109500D01*
X138052163Y-98110199D01*
X138046101Y-98110437D01*
X138046099Y-98110437D01*
X138042642Y-98110573D01*
X138039227Y-98111086D01*
X138039221Y-98111087D01*
X137766898Y-98152029D01*
X137766894Y-98152030D01*
X137762490Y-98152692D01*
X137758218Y-98153969D01*
X137758216Y-98153970D01*
X137717061Y-98166278D01*
X137491067Y-98233864D01*
X137487027Y-98235727D01*
X137487023Y-98235728D01*
X137244117Y-98347710D01*
X137233790Y-98352471D01*
X136995791Y-98506144D01*
X136781820Y-98691820D01*
X136596144Y-98905791D01*
X136442471Y-99143790D01*
X136323864Y-99401067D01*
X136322588Y-99405334D01*
X136287333Y-99523221D01*
X136242692Y-99672490D01*
X136242030Y-99676894D01*
X136242029Y-99676898D01*
X136212024Y-99876479D01*
X136200573Y-99952642D01*
X136199500Y-99979950D01*
X136199500Y-104240050D01*
X114862657Y-104240050D01*
X114867682Y-104231536D01*
X114867684Y-104231531D01*
X114869388Y-104228645D01*
X115023786Y-103889064D01*
X115141225Y-103534999D01*
X115152190Y-103484500D01*
X115219663Y-103173736D01*
X115220375Y-103170458D01*
X115260338Y-102799572D01*
X115260500Y-102793586D01*
X115260500Y-101614050D01*
X123631500Y-101614050D01*
X123632573Y-101641358D01*
X123633086Y-101644773D01*
X123633087Y-101644779D01*
X123671594Y-101900905D01*
X123674692Y-101921510D01*
X123755864Y-102192933D01*
X123874471Y-102450210D01*
X124028144Y-102688209D01*
X124213820Y-102902180D01*
X124427791Y-103087856D01*
X124665790Y-103241529D01*
X124669842Y-103243397D01*
X124919023Y-103358272D01*
X124919027Y-103358273D01*
X124923067Y-103360136D01*
X124927335Y-103361412D01*
X124927334Y-103361412D01*
X125190216Y-103440030D01*
X125190218Y-103440031D01*
X125194490Y-103441308D01*
X125198894Y-103441970D01*
X125198898Y-103441971D01*
X125471221Y-103482913D01*
X125471227Y-103482914D01*
X125474642Y-103483427D01*
X125478099Y-103483563D01*
X125478101Y-103483563D01*
X125484163Y-103483801D01*
X125501950Y-103484500D01*
X127562050Y-103484500D01*
X127579837Y-103483801D01*
X127585899Y-103483563D01*
X127585901Y-103483563D01*
X127589358Y-103483427D01*
X127592773Y-103482914D01*
X127592779Y-103482913D01*
X127865102Y-103441971D01*
X127865106Y-103441970D01*
X127869510Y-103441308D01*
X127873782Y-103440031D01*
X127873784Y-103440030D01*
X128136666Y-103361412D01*
X128136665Y-103361412D01*
X128140933Y-103360136D01*
X128144973Y-103358273D01*
X128144977Y-103358272D01*
X128394158Y-103243397D01*
X128398210Y-103241529D01*
X128636209Y-103087856D01*
X128850180Y-102902180D01*
X129035856Y-102688209D01*
X129189529Y-102450210D01*
X129308136Y-102192933D01*
X129361514Y-102014449D01*
X129400194Y-101954917D01*
X129446023Y-101929866D01*
X129542557Y-101900905D01*
X129552152Y-101897144D01*
X129750778Y-101799838D01*
X129759636Y-101794559D01*
X129817097Y-101753572D01*
X129825497Y-101742874D01*
X129818509Y-101729720D01*
X129469405Y-101380616D01*
X129435379Y-101318304D01*
X129432500Y-101291521D01*
X129432500Y-100929481D01*
X129452502Y-100861360D01*
X129506158Y-100814867D01*
X129576432Y-100804763D01*
X129641012Y-100834257D01*
X129647595Y-100840385D01*
X130178307Y-101371096D01*
X130190313Y-101377652D01*
X130202052Y-101368684D01*
X130240010Y-101315859D01*
X130245321Y-101307020D01*
X130343318Y-101108737D01*
X130347117Y-101099142D01*
X130411415Y-100887517D01*
X130413594Y-100877436D01*
X130442702Y-100656338D01*
X130443221Y-100649663D01*
X130444744Y-100587364D01*
X130444550Y-100580646D01*
X130426279Y-100358400D01*
X130424596Y-100348238D01*
X130370710Y-100133708D01*
X130367389Y-100123953D01*
X130279193Y-99921118D01*
X130274315Y-99912020D01*
X130201224Y-99799038D01*
X130190538Y-99789835D01*
X130180973Y-99794238D01*
X129647595Y-100327615D01*
X129585283Y-100361640D01*
X129514467Y-100356575D01*
X129457632Y-100314028D01*
X129432821Y-100247508D01*
X129432500Y-100238519D01*
X129432500Y-99876479D01*
X129452502Y-99808358D01*
X129469405Y-99787384D01*
X129820990Y-99435799D01*
X129828010Y-99422943D01*
X129820236Y-99412273D01*
X129817902Y-99410430D01*
X129809320Y-99404729D01*
X129615678Y-99297833D01*
X129606273Y-99293606D01*
X129439691Y-99234617D01*
X129382154Y-99193023D01*
X129361033Y-99151945D01*
X129357474Y-99140042D01*
X129346096Y-99101997D01*
X129309414Y-98979338D01*
X129309411Y-98979329D01*
X129308136Y-98975067D01*
X129274648Y-98902425D01*
X129191397Y-98721842D01*
X129189529Y-98717790D01*
X129172761Y-98691820D01*
X129136441Y-98635571D01*
X129035856Y-98479791D01*
X128850180Y-98265820D01*
X128636209Y-98080144D01*
X128398210Y-97926471D01*
X128387883Y-97921710D01*
X128144977Y-97809728D01*
X128144973Y-97809727D01*
X128140933Y-97807864D01*
X127908713Y-97738416D01*
X127873784Y-97727970D01*
X127873782Y-97727969D01*
X127869510Y-97726692D01*
X127865106Y-97726030D01*
X127865102Y-97726029D01*
X127592779Y-97685087D01*
X127592773Y-97685086D01*
X127589358Y-97684573D01*
X127585901Y-97684437D01*
X127585899Y-97684437D01*
X127579837Y-97684199D01*
X127562050Y-97683500D01*
X125501950Y-97683500D01*
X125484163Y-97684199D01*
X125478101Y-97684437D01*
X125478099Y-97684437D01*
X125474642Y-97684573D01*
X125471227Y-97685086D01*
X125471221Y-97685087D01*
X125198898Y-97726029D01*
X125198894Y-97726030D01*
X125194490Y-97726692D01*
X125190218Y-97727969D01*
X125190216Y-97727970D01*
X125155287Y-97738416D01*
X124923067Y-97807864D01*
X124919027Y-97809727D01*
X124919023Y-97809728D01*
X124676117Y-97921710D01*
X124665790Y-97926471D01*
X124427791Y-98080144D01*
X124213820Y-98265820D01*
X124028144Y-98479791D01*
X123927559Y-98635571D01*
X123891240Y-98691820D01*
X123874471Y-98717790D01*
X123872603Y-98721842D01*
X123789353Y-98902425D01*
X123755864Y-98975067D01*
X123754588Y-98979334D01*
X123705406Y-99143790D01*
X123674692Y-99246490D01*
X123674030Y-99250894D01*
X123674029Y-99250898D01*
X123633579Y-99519953D01*
X123632573Y-99526642D01*
X123631500Y-99553950D01*
X123631500Y-101614050D01*
X115260500Y-101614050D01*
X115260500Y-101516761D01*
X115249926Y-101318304D01*
X115245798Y-101240827D01*
X115245797Y-101240818D01*
X115245620Y-101237495D01*
X115186300Y-100869208D01*
X115184161Y-100861360D01*
X115089066Y-100512555D01*
X115089066Y-100512554D01*
X115088181Y-100509309D01*
X114952372Y-100161876D01*
X114857224Y-99978709D01*
X114781956Y-99833811D01*
X114781954Y-99833808D01*
X114780413Y-99830841D01*
X114574251Y-99519953D01*
X114386668Y-99293606D01*
X114338362Y-99235317D01*
X114338357Y-99235311D01*
X114336220Y-99232733D01*
X114333811Y-99230386D01*
X114071417Y-98974773D01*
X114071408Y-98974765D01*
X114069015Y-98972434D01*
X113837424Y-98790516D01*
X113778301Y-98744074D01*
X113778299Y-98744072D01*
X113775663Y-98742002D01*
X113459485Y-98544049D01*
X113124062Y-98380814D01*
X113120923Y-98379681D01*
X113120914Y-98379677D01*
X112805526Y-98265820D01*
X112773192Y-98254147D01*
X112769944Y-98253352D01*
X112769940Y-98253351D01*
X112414102Y-98166278D01*
X112414098Y-98166277D01*
X112410848Y-98165482D01*
X112302883Y-98150981D01*
X112238032Y-98122088D01*
X112199096Y-98062721D01*
X112198436Y-97991728D01*
X112236264Y-97931648D01*
X112300568Y-97901556D01*
X112311087Y-97900394D01*
X112628513Y-97878754D01*
X112628520Y-97878753D01*
X112632145Y-97878506D01*
X112635721Y-97877843D01*
X112635723Y-97877843D01*
X112957474Y-97818210D01*
X112957478Y-97818209D01*
X112961039Y-97817549D01*
X113280747Y-97719194D01*
X113587031Y-97584745D01*
X113875833Y-97415983D01*
X114143323Y-97215145D01*
X114385957Y-96984894D01*
X114600519Y-96728281D01*
X114747793Y-96504078D01*
X114782177Y-96451734D01*
X114782182Y-96451725D01*
X114784164Y-96448708D01*
X114875289Y-96267527D01*
X114932832Y-96153116D01*
X114932835Y-96153108D01*
X114934459Y-96149880D01*
X114935704Y-96146478D01*
X115048163Y-95839170D01*
X115048166Y-95839160D01*
X115049411Y-95835758D01*
X115050256Y-95832236D01*
X115050259Y-95832228D01*
X115126651Y-95514034D01*
X115126652Y-95514030D01*
X115127498Y-95510505D01*
X115139244Y-95413439D01*
X115167347Y-95181212D01*
X115167348Y-95181205D01*
X115167683Y-95178433D01*
X115173416Y-94996000D01*
X115172864Y-94986420D01*
X115154370Y-94665680D01*
X115154369Y-94665675D01*
X115154161Y-94662060D01*
X115143893Y-94603227D01*
X115097276Y-94336119D01*
X115097274Y-94336112D01*
X115096652Y-94332546D01*
X115094127Y-94324020D01*
X115041983Y-94147986D01*
X115001650Y-94011825D01*
X114972109Y-93942566D01*
X114912825Y-93803578D01*
X114870415Y-93704150D01*
X114865743Y-93695958D01*
X114706478Y-93416737D01*
X114704687Y-93413597D01*
X114651310Y-93340932D01*
X114508805Y-93146935D01*
X114508803Y-93146932D01*
X114506662Y-93144018D01*
X114460274Y-93094098D01*
X114392813Y-93021502D01*
X114278964Y-92898986D01*
X114024612Y-92681749D01*
X113746977Y-92495186D01*
X113743768Y-92493530D01*
X113743760Y-92493525D01*
X113452959Y-92343432D01*
X113449739Y-92341770D01*
X113136838Y-92223535D01*
X112812421Y-92142047D01*
X112672973Y-92123688D01*
X112484391Y-92098861D01*
X112484383Y-92098860D01*
X112480787Y-92098387D01*
X112341863Y-92096205D01*
X112149976Y-92093190D01*
X112149972Y-92093190D01*
X112146334Y-92093133D01*
X112142720Y-92093494D01*
X112142713Y-92093494D01*
X111888428Y-92118875D01*
X111813493Y-92126354D01*
X111486676Y-92197612D01*
X111483249Y-92198785D01*
X111483243Y-92198787D01*
X111173646Y-92304786D01*
X111173641Y-92304788D01*
X111170215Y-92305961D01*
X111166947Y-92307520D01*
X111166939Y-92307523D01*
X111013104Y-92380899D01*
X110868305Y-92449965D01*
X110584947Y-92627715D01*
X110582111Y-92629987D01*
X110582104Y-92629992D01*
X110424688Y-92756106D01*
X110323897Y-92836855D01*
X110088615Y-93074614D01*
X109882220Y-93337840D01*
X109707447Y-93623043D01*
X109705922Y-93626328D01*
X109705920Y-93626332D01*
X109614895Y-93822430D01*
X109566613Y-93926445D01*
X109560598Y-93944634D01*
X109472043Y-94212399D01*
X109461584Y-94244023D01*
X109460848Y-94247578D01*
X109460847Y-94247581D01*
X109401258Y-94535323D01*
X109393752Y-94571568D01*
X109393429Y-94575190D01*
X109393428Y-94575195D01*
X109372538Y-94809267D01*
X109364018Y-94904739D01*
X109364113Y-94908369D01*
X109364113Y-94908371D01*
X109366378Y-94994868D01*
X109372774Y-95239119D01*
X109373284Y-95242705D01*
X109373285Y-95242713D01*
X109390036Y-95360408D01*
X109419904Y-95570277D01*
X109420823Y-95573780D01*
X109420824Y-95573785D01*
X109477456Y-95789652D01*
X109504785Y-95893823D01*
X109626291Y-96205469D01*
X109627995Y-96208687D01*
X109756682Y-96451734D01*
X109782811Y-96501084D01*
X109784863Y-96504069D01*
X109784868Y-96504078D01*
X109970214Y-96773758D01*
X109970220Y-96773765D01*
X109972271Y-96776750D01*
X110192160Y-97028813D01*
X110439562Y-97253932D01*
X110711200Y-97449124D01*
X111003473Y-97611801D01*
X111312506Y-97739806D01*
X111316000Y-97740801D01*
X111316002Y-97740802D01*
X111630702Y-97830447D01*
X111630707Y-97830448D01*
X111634203Y-97831444D01*
X111798266Y-97858311D01*
X111862258Y-97889058D01*
X111899469Y-97949522D01*
X111898083Y-98020505D01*
X111858542Y-98079470D01*
X111793398Y-98107698D01*
X111774495Y-98108608D01*
X111705338Y-98106737D01*
X111668238Y-98105733D01*
X111664897Y-98105999D01*
X111664893Y-98105999D01*
X111409010Y-98126363D01*
X111296379Y-98135326D01*
X111293100Y-98135943D01*
X111293097Y-98135943D01*
X110933055Y-98203648D01*
X110933047Y-98203650D01*
X110929771Y-98204266D01*
X110572565Y-98311773D01*
X110228805Y-98456629D01*
X110225878Y-98458248D01*
X110225870Y-98458252D01*
X109905320Y-98635571D01*
X109905314Y-98635575D01*
X109902385Y-98637195D01*
X109776862Y-98725250D01*
X109709610Y-98747995D01*
X109640735Y-98730771D01*
X109609340Y-98704680D01*
X109598180Y-98691820D01*
X109384209Y-98506144D01*
X109146210Y-98352471D01*
X109135883Y-98347710D01*
X108892977Y-98235728D01*
X108892973Y-98235727D01*
X108888933Y-98233864D01*
X108662939Y-98166278D01*
X108621784Y-98153970D01*
X108621782Y-98153969D01*
X108617510Y-98152692D01*
X108613106Y-98152030D01*
X108613102Y-98152029D01*
X108340779Y-98111087D01*
X108340773Y-98111086D01*
X108337358Y-98110573D01*
X108333901Y-98110437D01*
X108333899Y-98110437D01*
X108327837Y-98110199D01*
X108310050Y-98109500D01*
X105049950Y-98109500D01*
X105032163Y-98110199D01*
X105026101Y-98110437D01*
X105026099Y-98110437D01*
X105022642Y-98110573D01*
X105019227Y-98111086D01*
X105019221Y-98111087D01*
X104746898Y-98152029D01*
X104746894Y-98152030D01*
X104742490Y-98152692D01*
X104738218Y-98153969D01*
X104738216Y-98153970D01*
X104697061Y-98166278D01*
X104471067Y-98233864D01*
X104467027Y-98235727D01*
X104467023Y-98235728D01*
X104224117Y-98347710D01*
X104213790Y-98352471D01*
X103975791Y-98506144D01*
X103761820Y-98691820D01*
X103576144Y-98905791D01*
X103422471Y-99143790D01*
X103303864Y-99401067D01*
X103302588Y-99405334D01*
X103267333Y-99523221D01*
X103222692Y-99672490D01*
X103222030Y-99676894D01*
X103222029Y-99676898D01*
X103192024Y-99876479D01*
X103180573Y-99952642D01*
X103179500Y-99979950D01*
X103179500Y-104240050D01*
X96508500Y-104240050D01*
X96508500Y-96157406D01*
X106471423Y-96157406D01*
X106476704Y-96164461D01*
X106653080Y-96267527D01*
X106662363Y-96271974D01*
X106869003Y-96350883D01*
X106878901Y-96353759D01*
X107095653Y-96397857D01*
X107105883Y-96399076D01*
X107326914Y-96407182D01*
X107337223Y-96406714D01*
X107556623Y-96378608D01*
X107566688Y-96376468D01*
X107778557Y-96312905D01*
X107788152Y-96309144D01*
X107986778Y-96211838D01*
X107995636Y-96206559D01*
X108053097Y-96165572D01*
X108061497Y-96154874D01*
X108054510Y-96141721D01*
X107280811Y-95368021D01*
X107266868Y-95360408D01*
X107265034Y-95360539D01*
X107258420Y-95364790D01*
X106478180Y-96145031D01*
X106471423Y-96157406D01*
X96508500Y-96157406D01*
X96508500Y-94966638D01*
X105855893Y-94966638D01*
X105868627Y-95187468D01*
X105870061Y-95197670D01*
X105918685Y-95413439D01*
X105921773Y-95423292D01*
X106004986Y-95628220D01*
X106009634Y-95637421D01*
X106098097Y-95781781D01*
X106108553Y-95791242D01*
X106117331Y-95787458D01*
X106895979Y-95008811D01*
X106902356Y-94997132D01*
X107632408Y-94997132D01*
X107632539Y-94998966D01*
X107636790Y-95005580D01*
X108414307Y-95783096D01*
X108426313Y-95789652D01*
X108438052Y-95780684D01*
X108476010Y-95727859D01*
X108481321Y-95719020D01*
X108579318Y-95520737D01*
X108583117Y-95511142D01*
X108647415Y-95299517D01*
X108649594Y-95289436D01*
X108678702Y-95068338D01*
X108679221Y-95061663D01*
X108680744Y-94999364D01*
X108680550Y-94992646D01*
X108662279Y-94770400D01*
X108660596Y-94760238D01*
X108606710Y-94545708D01*
X108603389Y-94535953D01*
X108515193Y-94333118D01*
X108510315Y-94324020D01*
X108437224Y-94211038D01*
X108426538Y-94201835D01*
X108416973Y-94206238D01*
X107640021Y-94983189D01*
X107632408Y-94997132D01*
X106902356Y-94997132D01*
X106903592Y-94994868D01*
X106903461Y-94993034D01*
X106899210Y-94986420D01*
X106121862Y-94209073D01*
X106110330Y-94202776D01*
X106098048Y-94212399D01*
X106042467Y-94293877D01*
X106037379Y-94302833D01*
X105944252Y-94503459D01*
X105940689Y-94513146D01*
X105881581Y-94726280D01*
X105879650Y-94736400D01*
X105856145Y-94956349D01*
X105855893Y-94966638D01*
X96508500Y-94966638D01*
X96508500Y-93836711D01*
X106473508Y-93836711D01*
X106480251Y-93849040D01*
X107255189Y-94623979D01*
X107269132Y-94631592D01*
X107270966Y-94631461D01*
X107277580Y-94627210D01*
X108056994Y-93847795D01*
X108064011Y-93834944D01*
X108056237Y-93824274D01*
X108053902Y-93822430D01*
X108045320Y-93816729D01*
X107851678Y-93709833D01*
X107842272Y-93705606D01*
X107633772Y-93631772D01*
X107623809Y-93629140D01*
X107406047Y-93590350D01*
X107395796Y-93589381D01*
X107174616Y-93586679D01*
X107164332Y-93587399D01*
X106945693Y-93620855D01*
X106935666Y-93623244D01*
X106725426Y-93691961D01*
X106715916Y-93695958D01*
X106519725Y-93798089D01*
X106511007Y-93803578D01*
X106481961Y-93825386D01*
X106473508Y-93836711D01*
X96508500Y-93836711D01*
X96508500Y-91398239D01*
X119689500Y-91398239D01*
X119704380Y-91677505D01*
X119763700Y-92045792D01*
X119764580Y-92049022D01*
X119764581Y-92049024D01*
X119844043Y-92340489D01*
X119861819Y-92405691D01*
X119997628Y-92753124D01*
X119999177Y-92756106D01*
X120163290Y-93072036D01*
X120169587Y-93084159D01*
X120171436Y-93086947D01*
X120319433Y-93310123D01*
X120375749Y-93395047D01*
X120432639Y-93463694D01*
X120611638Y-93679683D01*
X120611643Y-93679689D01*
X120613780Y-93682267D01*
X120616187Y-93684611D01*
X120616189Y-93684614D01*
X120878583Y-93940227D01*
X120878592Y-93940235D01*
X120880985Y-93942566D01*
X121174337Y-94172998D01*
X121368639Y-94294647D01*
X121423612Y-94329064D01*
X121490515Y-94370951D01*
X121825938Y-94534186D01*
X121829077Y-94535319D01*
X121829086Y-94535323D01*
X122017183Y-94603227D01*
X122176808Y-94660853D01*
X122180056Y-94661648D01*
X122180060Y-94661649D01*
X122535898Y-94748722D01*
X122535902Y-94748723D01*
X122539152Y-94749518D01*
X122908865Y-94799176D01*
X123281762Y-94809267D01*
X123285103Y-94809001D01*
X123285107Y-94809001D01*
X123540990Y-94788637D01*
X123653621Y-94779674D01*
X123656900Y-94779057D01*
X123656903Y-94779057D01*
X124016945Y-94711352D01*
X124016953Y-94711350D01*
X124020229Y-94710734D01*
X124377435Y-94603227D01*
X124452566Y-94571568D01*
X124544756Y-94532720D01*
X124721195Y-94458371D01*
X124724122Y-94456752D01*
X124724130Y-94456748D01*
X125044680Y-94279429D01*
X125044686Y-94279425D01*
X125047615Y-94277805D01*
X125090700Y-94247581D01*
X125350242Y-94065511D01*
X125350245Y-94065509D01*
X125353000Y-94063576D01*
X125633890Y-93818107D01*
X125887106Y-93544180D01*
X126109779Y-93244896D01*
X126170159Y-93142595D01*
X126222009Y-93094098D01*
X126291848Y-93081331D01*
X126357503Y-93108349D01*
X126379494Y-93131075D01*
X126401714Y-93160723D01*
X126414276Y-93173285D01*
X126516351Y-93249786D01*
X126531946Y-93258324D01*
X126652394Y-93303478D01*
X126667649Y-93307105D01*
X126718514Y-93312631D01*
X126725328Y-93313000D01*
X127997885Y-93313000D01*
X128013124Y-93308525D01*
X128014329Y-93307135D01*
X128016000Y-93299452D01*
X128016000Y-93294884D01*
X128524000Y-93294884D01*
X128528475Y-93310123D01*
X128529865Y-93311328D01*
X128537548Y-93312999D01*
X129814669Y-93312999D01*
X129821490Y-93312629D01*
X129872352Y-93307105D01*
X129887604Y-93303479D01*
X130008054Y-93258324D01*
X130023649Y-93249786D01*
X130125724Y-93173285D01*
X130138285Y-93160724D01*
X130214786Y-93058649D01*
X130223324Y-93043054D01*
X130268478Y-92922606D01*
X130272105Y-92907351D01*
X130277631Y-92856486D01*
X130278000Y-92849672D01*
X130278000Y-91077115D01*
X130273525Y-91061876D01*
X130272135Y-91060671D01*
X130264452Y-91059000D01*
X128542115Y-91059000D01*
X128526876Y-91063475D01*
X128525671Y-91064865D01*
X128524000Y-91072548D01*
X128524000Y-93294884D01*
X128016000Y-93294884D01*
X128016000Y-90532885D01*
X128524000Y-90532885D01*
X128528475Y-90548124D01*
X128529865Y-90549329D01*
X128537548Y-90551000D01*
X130259884Y-90551000D01*
X130275123Y-90546525D01*
X130276328Y-90545135D01*
X130277999Y-90537452D01*
X130277999Y-88760331D01*
X130277629Y-88753510D01*
X130272105Y-88702648D01*
X130268479Y-88687396D01*
X130223324Y-88566946D01*
X130214786Y-88551351D01*
X130138285Y-88449276D01*
X130125724Y-88436715D01*
X130023649Y-88360214D01*
X130008054Y-88351676D01*
X129887606Y-88306522D01*
X129872351Y-88302895D01*
X129821486Y-88297369D01*
X129814672Y-88297000D01*
X128542115Y-88297000D01*
X128526876Y-88301475D01*
X128525671Y-88302865D01*
X128524000Y-88310548D01*
X128524000Y-90532885D01*
X128016000Y-90532885D01*
X128016000Y-88315116D01*
X128011525Y-88299877D01*
X128010135Y-88298672D01*
X128002452Y-88297001D01*
X126725331Y-88297001D01*
X126718510Y-88297371D01*
X126667648Y-88302895D01*
X126652396Y-88306521D01*
X126531946Y-88351676D01*
X126516351Y-88360214D01*
X126414276Y-88436715D01*
X126401715Y-88449276D01*
X126380402Y-88477714D01*
X126323543Y-88520229D01*
X126252725Y-88525255D01*
X126190431Y-88491195D01*
X126174567Y-88471785D01*
X126006100Y-88217741D01*
X126006098Y-88217739D01*
X126004251Y-88214953D01*
X125882896Y-88068520D01*
X125768362Y-87930317D01*
X125768357Y-87930311D01*
X125766220Y-87927733D01*
X125629310Y-87794361D01*
X125501417Y-87669773D01*
X125501408Y-87669765D01*
X125499015Y-87667434D01*
X125205663Y-87437002D01*
X124889485Y-87239049D01*
X124554062Y-87075814D01*
X124550923Y-87074681D01*
X124550914Y-87074677D01*
X124297907Y-86983340D01*
X124203192Y-86949147D01*
X124199944Y-86948352D01*
X124199940Y-86948351D01*
X123844102Y-86861278D01*
X123844098Y-86861277D01*
X123840848Y-86860482D01*
X123471135Y-86810824D01*
X123098238Y-86800733D01*
X123094897Y-86800999D01*
X123094893Y-86800999D01*
X122839010Y-86821363D01*
X122726379Y-86830326D01*
X122723100Y-86830943D01*
X122723097Y-86830943D01*
X122363055Y-86898648D01*
X122363047Y-86898650D01*
X122359771Y-86899266D01*
X122002565Y-87006773D01*
X121658805Y-87151629D01*
X121655878Y-87153248D01*
X121655870Y-87153252D01*
X121335320Y-87330571D01*
X121335314Y-87330575D01*
X121332385Y-87332195D01*
X121329638Y-87334122D01*
X121062986Y-87521180D01*
X121027000Y-87546424D01*
X120746110Y-87791893D01*
X120492894Y-88065820D01*
X120270221Y-88365104D01*
X120268517Y-88367990D01*
X120268513Y-88367997D01*
X120082318Y-88683464D01*
X120080612Y-88686355D01*
X119926214Y-89025936D01*
X119808775Y-89380001D01*
X119808067Y-89383261D01*
X119808065Y-89383269D01*
X119759921Y-89605008D01*
X119729625Y-89744542D01*
X119689662Y-90115428D01*
X119689500Y-90121414D01*
X119689500Y-91398239D01*
X96508500Y-91398239D01*
X96508500Y-77837828D01*
X96528502Y-77769707D01*
X96582158Y-77723214D01*
X96652432Y-77713110D01*
X96717012Y-77742604D01*
X96738340Y-77766461D01*
X96841364Y-77916363D01*
X96841370Y-77916370D01*
X96843421Y-77919355D01*
X97055728Y-78162728D01*
X97294601Y-78380086D01*
X97556874Y-78568548D01*
X97839070Y-78725616D01*
X98137448Y-78849208D01*
X98140942Y-78850203D01*
X98140944Y-78850204D01*
X98444554Y-78936690D01*
X98444559Y-78936691D01*
X98448055Y-78937687D01*
X98660724Y-78972513D01*
X98763192Y-78989293D01*
X98763196Y-78989293D01*
X98766772Y-78989879D01*
X98770398Y-78990050D01*
X98790160Y-78990982D01*
X98857263Y-79014171D01*
X98901176Y-79069957D01*
X98907958Y-79140629D01*
X98890076Y-79185188D01*
X98742471Y-79413790D01*
X98623864Y-79671067D01*
X98542692Y-79942490D01*
X98500573Y-80222642D01*
X98499500Y-80249950D01*
X98499500Y-82310050D01*
X98500573Y-82337358D01*
X98501086Y-82340773D01*
X98501087Y-82340779D01*
X98542029Y-82613102D01*
X98542692Y-82617510D01*
X98543969Y-82621782D01*
X98543970Y-82621784D01*
X98623864Y-82888933D01*
X98622754Y-82889265D01*
X98627730Y-82954853D01*
X98623161Y-82970959D01*
X98611187Y-83004494D01*
X98610360Y-83008091D01*
X98535912Y-83331846D01*
X98535911Y-83331855D01*
X98535087Y-83335436D01*
X98534686Y-83339093D01*
X98534686Y-83339096D01*
X98517952Y-83491893D01*
X98498118Y-83672997D01*
X98500785Y-84012566D01*
X98501244Y-84016225D01*
X98540718Y-84330895D01*
X98543052Y-84349504D01*
X98543933Y-84353075D01*
X98543933Y-84353078D01*
X98566313Y-84443850D01*
X98624340Y-84679210D01*
X98625634Y-84682661D01*
X98625634Y-84682662D01*
X98733531Y-84970478D01*
X98743541Y-84997181D01*
X98899025Y-85299072D01*
X99088670Y-85580762D01*
X99309884Y-85838401D01*
X99559647Y-86068472D01*
X99746051Y-86203654D01*
X99800224Y-86242941D01*
X99834546Y-86267832D01*
X99837765Y-86269635D01*
X99837767Y-86269636D01*
X100046787Y-86386693D01*
X100096449Y-86437430D01*
X100110796Y-86506961D01*
X100085275Y-86573212D01*
X100027986Y-86615148D01*
X100020720Y-86617523D01*
X100019187Y-86617973D01*
X100017662Y-86628580D01*
X100045413Y-86760840D01*
X100048473Y-86771037D01*
X100132315Y-86983340D01*
X100137049Y-86992876D01*
X100255468Y-87188025D01*
X100261734Y-87196618D01*
X100411342Y-87369027D01*
X100418972Y-87376447D01*
X100595488Y-87521180D01*
X100604255Y-87527206D01*
X100802633Y-87640129D01*
X100812297Y-87644595D01*
X101026868Y-87722481D01*
X101037135Y-87725251D01*
X101262932Y-87766081D01*
X101271162Y-87767016D01*
X101290550Y-87767930D01*
X101293526Y-87768000D01*
X101327885Y-87768000D01*
X101343124Y-87763525D01*
X101344329Y-87762135D01*
X101346000Y-87754452D01*
X101346000Y-86846500D01*
X101366002Y-86778379D01*
X101419658Y-86731886D01*
X101472000Y-86720500D01*
X101728000Y-86720500D01*
X101796121Y-86740502D01*
X101842614Y-86794158D01*
X101854000Y-86846500D01*
X101854000Y-87749885D01*
X101858475Y-87765124D01*
X101859865Y-87766329D01*
X101865430Y-87767539D01*
X102032771Y-87753340D01*
X102043259Y-87751548D01*
X102264211Y-87694199D01*
X102274239Y-87690667D01*
X102482363Y-87596915D01*
X102491669Y-87591735D01*
X102681024Y-87464253D01*
X102689307Y-87457594D01*
X102854478Y-87300029D01*
X102861530Y-87292058D01*
X102997790Y-87108918D01*
X103003394Y-87099881D01*
X103106851Y-86896394D01*
X103110852Y-86886541D01*
X103178544Y-86668539D01*
X103180828Y-86658152D01*
X103184300Y-86631957D01*
X103182074Y-86617597D01*
X103122673Y-86579885D01*
X103092823Y-86515468D01*
X103102539Y-86445140D01*
X103154155Y-86387894D01*
X103157514Y-86385943D01*
X103403710Y-86242941D01*
X103406649Y-86240738D01*
X103406654Y-86240735D01*
X103636504Y-86068472D01*
X103675444Y-86039288D01*
X103678225Y-86036644D01*
X103918886Y-85807866D01*
X103918887Y-85807865D01*
X103921562Y-85805322D01*
X104138702Y-85544240D01*
X104140710Y-85541153D01*
X104140715Y-85541147D01*
X104321885Y-85262700D01*
X104321886Y-85262699D01*
X104323898Y-85259606D01*
X104452258Y-85000461D01*
X104472985Y-84958616D01*
X104472988Y-84958609D01*
X104474622Y-84955310D01*
X104588813Y-84635506D01*
X104645110Y-84390683D01*
X104664088Y-84308154D01*
X104664089Y-84308145D01*
X104664913Y-84304564D01*
X104701882Y-83967003D01*
X104699215Y-83627434D01*
X104682212Y-83491893D01*
X104693579Y-83421813D01*
X104741031Y-83369003D01*
X104809501Y-83350230D01*
X104868509Y-83366114D01*
X104907473Y-83387801D01*
X105216506Y-83515806D01*
X105220000Y-83516801D01*
X105220002Y-83516802D01*
X105534702Y-83606447D01*
X105534707Y-83606448D01*
X105538203Y-83607444D01*
X105541784Y-83608030D01*
X105541791Y-83608032D01*
X105864721Y-83660914D01*
X105864725Y-83660914D01*
X105868301Y-83661500D01*
X105871927Y-83661671D01*
X106198798Y-83677086D01*
X106198799Y-83677086D01*
X106202425Y-83677257D01*
X106210742Y-83676690D01*
X106532514Y-83654754D01*
X106532522Y-83654753D01*
X106536145Y-83654506D01*
X106539721Y-83653843D01*
X106539723Y-83653843D01*
X106861474Y-83594210D01*
X106861478Y-83594209D01*
X106865039Y-83593549D01*
X107184747Y-83495194D01*
X107197309Y-83489680D01*
X107403439Y-83399195D01*
X107491031Y-83360745D01*
X107779833Y-83191983D01*
X107822272Y-83160119D01*
X108044416Y-82993328D01*
X108044420Y-82993325D01*
X108047323Y-82991145D01*
X108289957Y-82760894D01*
X108478433Y-82535480D01*
X108537472Y-82496052D01*
X108608458Y-82494801D01*
X108668850Y-82532127D01*
X108699693Y-82597569D01*
X108702027Y-82613092D01*
X108702029Y-82613102D01*
X108702692Y-82617510D01*
X108703969Y-82621782D01*
X108703970Y-82621784D01*
X108783864Y-82888933D01*
X108782754Y-82889265D01*
X108787730Y-82954853D01*
X108783161Y-82970959D01*
X108771187Y-83004494D01*
X108770360Y-83008091D01*
X108695912Y-83331846D01*
X108695911Y-83331855D01*
X108695087Y-83335436D01*
X108694686Y-83339093D01*
X108694686Y-83339096D01*
X108677952Y-83491893D01*
X108658118Y-83672997D01*
X108660785Y-84012566D01*
X108661244Y-84016225D01*
X108700718Y-84330895D01*
X108703052Y-84349504D01*
X108703933Y-84353075D01*
X108703933Y-84353078D01*
X108726313Y-84443850D01*
X108784340Y-84679210D01*
X108785634Y-84682661D01*
X108785634Y-84682662D01*
X108893531Y-84970478D01*
X108903541Y-84997181D01*
X109059025Y-85299072D01*
X109248670Y-85580762D01*
X109469884Y-85838401D01*
X109719647Y-86068472D01*
X109906051Y-86203654D01*
X109960224Y-86242941D01*
X109994546Y-86267832D01*
X109997765Y-86269635D01*
X109997767Y-86269636D01*
X110206787Y-86386693D01*
X110256449Y-86437430D01*
X110270796Y-86506961D01*
X110245275Y-86573212D01*
X110187986Y-86615148D01*
X110180720Y-86617523D01*
X110179187Y-86617973D01*
X110177662Y-86628580D01*
X110205413Y-86760840D01*
X110208473Y-86771037D01*
X110292315Y-86983340D01*
X110297049Y-86992876D01*
X110415468Y-87188025D01*
X110421734Y-87196618D01*
X110571342Y-87369027D01*
X110578972Y-87376447D01*
X110755488Y-87521180D01*
X110764255Y-87527206D01*
X110962633Y-87640129D01*
X110972297Y-87644595D01*
X111186868Y-87722481D01*
X111197135Y-87725251D01*
X111422932Y-87766081D01*
X111431162Y-87767016D01*
X111450550Y-87767930D01*
X111453526Y-87768000D01*
X111487885Y-87768000D01*
X111503124Y-87763525D01*
X111504329Y-87762135D01*
X111506000Y-87754452D01*
X111506000Y-86846500D01*
X111526002Y-86778379D01*
X111579658Y-86731886D01*
X111632000Y-86720500D01*
X111888000Y-86720500D01*
X111956121Y-86740502D01*
X112002614Y-86794158D01*
X112014000Y-86846500D01*
X112014000Y-87749885D01*
X112018475Y-87765124D01*
X112019865Y-87766329D01*
X112025430Y-87767539D01*
X112192771Y-87753340D01*
X112203259Y-87751548D01*
X112424211Y-87694199D01*
X112434239Y-87690667D01*
X112642363Y-87596915D01*
X112651669Y-87591735D01*
X112841024Y-87464253D01*
X112849307Y-87457594D01*
X113014478Y-87300029D01*
X113021530Y-87292058D01*
X113157790Y-87108918D01*
X113163394Y-87099881D01*
X113266851Y-86896394D01*
X113270852Y-86886541D01*
X113338544Y-86668539D01*
X113340828Y-86658152D01*
X113344300Y-86631957D01*
X113342074Y-86617597D01*
X113282673Y-86579885D01*
X113252823Y-86515468D01*
X113262539Y-86445140D01*
X113314155Y-86387894D01*
X113317514Y-86385943D01*
X113563710Y-86242941D01*
X113566649Y-86240738D01*
X113566654Y-86240735D01*
X113796504Y-86068472D01*
X113835444Y-86039288D01*
X113838225Y-86036644D01*
X114078886Y-85807866D01*
X114078887Y-85807865D01*
X114081562Y-85805322D01*
X114298702Y-85544240D01*
X114300710Y-85541153D01*
X114300715Y-85541147D01*
X114481885Y-85262700D01*
X114481886Y-85262699D01*
X114483898Y-85259606D01*
X114612258Y-85000461D01*
X114632985Y-84958616D01*
X114632988Y-84958609D01*
X114634622Y-84955310D01*
X114748813Y-84635506D01*
X114805110Y-84390683D01*
X114824088Y-84308154D01*
X114824089Y-84308145D01*
X114824913Y-84304564D01*
X114861882Y-83967003D01*
X114859215Y-83627434D01*
X114841935Y-83489680D01*
X114817407Y-83294153D01*
X114817406Y-83294149D01*
X114816948Y-83290496D01*
X114804908Y-83241659D01*
X114736543Y-82964371D01*
X114736542Y-82964369D01*
X114735660Y-82960790D01*
X114736131Y-82960674D01*
X114735126Y-82892168D01*
X114736180Y-82888946D01*
X114736136Y-82888933D01*
X114816030Y-82621784D01*
X114816031Y-82621782D01*
X114817308Y-82617510D01*
X114817971Y-82613102D01*
X114858913Y-82340779D01*
X114858914Y-82340773D01*
X114859427Y-82337358D01*
X114860500Y-82310050D01*
X114860500Y-80249950D01*
X114859427Y-80222642D01*
X114817308Y-79942490D01*
X114736136Y-79671067D01*
X114617529Y-79413790D01*
X114523095Y-79267537D01*
X114502948Y-79199462D01*
X114510621Y-79155894D01*
X114541411Y-79071758D01*
X114542256Y-79068236D01*
X114542259Y-79068228D01*
X114618651Y-78750034D01*
X114618652Y-78750030D01*
X114619498Y-78746505D01*
X114621858Y-78727003D01*
X114659347Y-78417212D01*
X114659347Y-78417205D01*
X114659683Y-78414433D01*
X114663682Y-78287170D01*
X114685814Y-78219712D01*
X114740903Y-78174927D01*
X114811460Y-78167035D01*
X114874420Y-78197935D01*
X115074601Y-78380086D01*
X115336874Y-78568548D01*
X115619070Y-78725616D01*
X115917448Y-78849208D01*
X115920942Y-78850203D01*
X115920944Y-78850204D01*
X116224554Y-78936690D01*
X116224559Y-78936691D01*
X116228055Y-78937687D01*
X116440724Y-78972513D01*
X116543192Y-78989293D01*
X116543196Y-78989293D01*
X116546772Y-78989879D01*
X116550398Y-78990050D01*
X116865749Y-79004921D01*
X116865750Y-79004921D01*
X116869376Y-79005092D01*
X116881707Y-79004251D01*
X117187960Y-78983374D01*
X117187968Y-78983373D01*
X117191591Y-78983126D01*
X117195167Y-78982463D01*
X117195169Y-78982463D01*
X117505580Y-78924932D01*
X117505584Y-78924931D01*
X117509145Y-78924271D01*
X117817830Y-78829307D01*
X118056152Y-78724691D01*
X118126566Y-78715625D01*
X118158995Y-78725797D01*
X118159070Y-78725616D01*
X118161104Y-78726459D01*
X118161109Y-78726461D01*
X118162414Y-78727001D01*
X118162420Y-78727004D01*
X118323001Y-78793518D01*
X118457448Y-78849208D01*
X118460942Y-78850203D01*
X118460944Y-78850204D01*
X118764554Y-78936690D01*
X118764559Y-78936691D01*
X118768055Y-78937687D01*
X118980724Y-78972513D01*
X119083192Y-78989293D01*
X119083196Y-78989293D01*
X119086772Y-78989879D01*
X119090398Y-78990050D01*
X119405749Y-79004921D01*
X119405750Y-79004921D01*
X119409376Y-79005092D01*
X119421707Y-79004251D01*
X119727960Y-78983374D01*
X119727968Y-78983373D01*
X119731591Y-78983126D01*
X119735167Y-78982463D01*
X119735169Y-78982463D01*
X120045580Y-78924932D01*
X120045584Y-78924931D01*
X120049145Y-78924271D01*
X120357830Y-78829307D01*
X120596152Y-78724691D01*
X120666566Y-78715625D01*
X120698995Y-78725797D01*
X120699070Y-78725616D01*
X120701104Y-78726459D01*
X120701109Y-78726461D01*
X120702414Y-78727001D01*
X120702420Y-78727004D01*
X120863001Y-78793518D01*
X120997448Y-78849208D01*
X121000942Y-78850203D01*
X121000944Y-78850204D01*
X121304554Y-78936690D01*
X121304559Y-78936691D01*
X121308055Y-78937687D01*
X121520724Y-78972513D01*
X121623192Y-78989293D01*
X121623196Y-78989293D01*
X121626772Y-78989879D01*
X121630398Y-78990050D01*
X121945749Y-79004921D01*
X121945750Y-79004921D01*
X121949376Y-79005092D01*
X121961707Y-79004251D01*
X122267960Y-78983374D01*
X122267968Y-78983373D01*
X122271591Y-78983126D01*
X122275167Y-78982463D01*
X122275169Y-78982463D01*
X122362467Y-78966283D01*
X122588336Y-78924421D01*
X122588338Y-78924421D01*
X122589145Y-78924271D01*
X122589180Y-78924458D01*
X122658692Y-78927573D01*
X122716639Y-78968593D01*
X122743211Y-79034429D01*
X122729971Y-79104180D01*
X122706911Y-79135854D01*
X120527524Y-81315241D01*
X120465212Y-81349267D01*
X120394397Y-81344202D01*
X120368155Y-81330729D01*
X120367750Y-81330457D01*
X120350977Y-81319186D01*
X120053739Y-81165770D01*
X119740838Y-81047535D01*
X119416421Y-80966047D01*
X119276973Y-80947688D01*
X119088391Y-80922861D01*
X119088383Y-80922860D01*
X119084787Y-80922387D01*
X118945863Y-80920205D01*
X118753976Y-80917190D01*
X118753972Y-80917190D01*
X118750334Y-80917133D01*
X118746720Y-80917494D01*
X118746713Y-80917494D01*
X118492428Y-80942875D01*
X118417493Y-80950354D01*
X118090676Y-81021612D01*
X118087249Y-81022785D01*
X118087243Y-81022787D01*
X117777646Y-81128786D01*
X117777641Y-81128788D01*
X117774215Y-81129961D01*
X117770947Y-81131520D01*
X117770939Y-81131523D01*
X117617104Y-81204899D01*
X117472305Y-81273965D01*
X117188947Y-81451715D01*
X117186111Y-81453987D01*
X117186104Y-81453992D01*
X116951528Y-81641923D01*
X116927897Y-81660855D01*
X116692615Y-81898614D01*
X116486220Y-82161840D01*
X116484327Y-82164929D01*
X116484325Y-82164932D01*
X116441580Y-82234686D01*
X116311447Y-82447043D01*
X116309922Y-82450328D01*
X116309920Y-82450332D01*
X116241575Y-82597569D01*
X116170613Y-82750445D01*
X116143482Y-82832481D01*
X116085405Y-83008091D01*
X116065584Y-83068023D01*
X116064848Y-83071578D01*
X116064847Y-83071581D01*
X116004663Y-83362198D01*
X115997752Y-83395568D01*
X115997429Y-83399190D01*
X115997428Y-83399195D01*
X115968341Y-83725117D01*
X115968018Y-83728739D01*
X115968113Y-83732369D01*
X115968113Y-83732371D01*
X115970408Y-83820000D01*
X115976774Y-84063119D01*
X116023904Y-84394277D01*
X116108785Y-84717823D01*
X116230291Y-85029469D01*
X116231995Y-85032687D01*
X116360682Y-85275734D01*
X116386811Y-85325084D01*
X116388863Y-85328069D01*
X116388868Y-85328078D01*
X116574214Y-85597758D01*
X116574220Y-85597765D01*
X116576271Y-85600750D01*
X116578659Y-85603487D01*
X116783588Y-85838401D01*
X116796160Y-85852813D01*
X117043562Y-86077932D01*
X117315200Y-86273124D01*
X117607473Y-86435801D01*
X117916506Y-86563806D01*
X117920000Y-86564801D01*
X117920002Y-86564802D01*
X118234702Y-86654447D01*
X118234707Y-86654448D01*
X118238203Y-86655444D01*
X118241784Y-86656030D01*
X118241791Y-86656032D01*
X118564721Y-86708914D01*
X118564725Y-86708914D01*
X118568301Y-86709500D01*
X118571927Y-86709671D01*
X118898798Y-86725086D01*
X118898799Y-86725086D01*
X118902425Y-86725257D01*
X118910174Y-86724729D01*
X119232514Y-86702754D01*
X119232522Y-86702753D01*
X119236145Y-86702506D01*
X119239721Y-86701843D01*
X119239723Y-86701843D01*
X119561474Y-86642210D01*
X119561478Y-86642209D01*
X119565039Y-86641549D01*
X119884747Y-86543194D01*
X120191031Y-86408745D01*
X120479833Y-86239983D01*
X120698930Y-86075480D01*
X120744416Y-86041328D01*
X120744420Y-86041325D01*
X120747323Y-86039145D01*
X120989957Y-85808894D01*
X121204519Y-85552281D01*
X121351793Y-85328078D01*
X121386177Y-85275734D01*
X121386182Y-85275725D01*
X121388164Y-85272708D01*
X121512205Y-85026081D01*
X121536832Y-84977116D01*
X121536835Y-84977108D01*
X121538459Y-84973880D01*
X121546526Y-84951835D01*
X121652163Y-84663170D01*
X121652166Y-84663160D01*
X121653411Y-84659758D01*
X121654256Y-84656236D01*
X121654259Y-84656228D01*
X121730651Y-84338034D01*
X121730652Y-84338030D01*
X121731498Y-84334505D01*
X121735564Y-84300904D01*
X121771347Y-84005212D01*
X121771348Y-84005205D01*
X121771683Y-84002433D01*
X121772797Y-83967003D01*
X121777328Y-83822797D01*
X121777416Y-83820000D01*
X121777255Y-83817204D01*
X121758370Y-83489680D01*
X121758369Y-83489675D01*
X121758161Y-83486060D01*
X121741012Y-83387801D01*
X121701276Y-83160119D01*
X121701274Y-83160112D01*
X121700652Y-83156546D01*
X121605650Y-82835825D01*
X121572500Y-82758105D01*
X121475838Y-82531487D01*
X121474415Y-82528150D01*
X121460801Y-82504281D01*
X121354496Y-82317909D01*
X121338120Y-82248827D01*
X121361692Y-82181857D01*
X121374849Y-82166386D01*
X124506164Y-79035071D01*
X124568476Y-79001045D01*
X124586685Y-78998459D01*
X124689212Y-78991469D01*
X124807960Y-78983374D01*
X124807968Y-78983373D01*
X124811591Y-78983126D01*
X124815167Y-78982463D01*
X124815169Y-78982463D01*
X125125580Y-78924932D01*
X125125584Y-78924931D01*
X125129145Y-78924271D01*
X125437830Y-78829307D01*
X125676152Y-78724691D01*
X125746566Y-78715625D01*
X125778995Y-78725797D01*
X125779070Y-78725616D01*
X125781104Y-78726459D01*
X125781109Y-78726461D01*
X125782414Y-78727001D01*
X125782420Y-78727004D01*
X125943001Y-78793518D01*
X126077448Y-78849208D01*
X126080942Y-78850203D01*
X126080944Y-78850204D01*
X126384554Y-78936690D01*
X126384559Y-78936691D01*
X126388055Y-78937687D01*
X126600724Y-78972513D01*
X126703192Y-78989293D01*
X126703196Y-78989293D01*
X126706772Y-78989879D01*
X126710398Y-78990050D01*
X127025749Y-79004921D01*
X127025750Y-79004921D01*
X127029376Y-79005092D01*
X127041707Y-79004251D01*
X127347960Y-78983374D01*
X127347968Y-78983373D01*
X127351591Y-78983126D01*
X127355167Y-78982463D01*
X127355169Y-78982463D01*
X127665580Y-78924932D01*
X127665584Y-78924931D01*
X127669145Y-78924271D01*
X127977830Y-78829307D01*
X128216152Y-78724691D01*
X128286566Y-78715625D01*
X128318995Y-78725797D01*
X128319070Y-78725616D01*
X128321104Y-78726459D01*
X128321109Y-78726461D01*
X128322414Y-78727001D01*
X128322420Y-78727004D01*
X128483001Y-78793518D01*
X128617448Y-78849208D01*
X128620942Y-78850203D01*
X128620944Y-78850204D01*
X128924554Y-78936690D01*
X128924559Y-78936691D01*
X128928055Y-78937687D01*
X129140724Y-78972513D01*
X129243192Y-78989293D01*
X129243196Y-78989293D01*
X129246772Y-78989879D01*
X129250398Y-78990050D01*
X129565749Y-79004921D01*
X129565750Y-79004921D01*
X129569376Y-79005092D01*
X129581707Y-79004251D01*
X129887960Y-78983374D01*
X129887968Y-78983373D01*
X129891591Y-78983126D01*
X129895167Y-78982463D01*
X129895169Y-78982463D01*
X130205580Y-78924932D01*
X130205584Y-78924931D01*
X130209145Y-78924271D01*
X130517830Y-78829307D01*
X130756152Y-78724691D01*
X130826566Y-78715625D01*
X130858995Y-78725797D01*
X130859070Y-78725616D01*
X130861104Y-78726459D01*
X130861109Y-78726461D01*
X130862414Y-78727001D01*
X130862420Y-78727004D01*
X131023001Y-78793518D01*
X131157448Y-78849208D01*
X131160942Y-78850203D01*
X131160944Y-78850204D01*
X131464554Y-78936690D01*
X131464559Y-78936691D01*
X131468055Y-78937687D01*
X131680724Y-78972513D01*
X131783192Y-78989293D01*
X131783196Y-78989293D01*
X131786772Y-78989879D01*
X131790398Y-78990050D01*
X132105749Y-79004921D01*
X132105750Y-79004921D01*
X132109376Y-79005092D01*
X132121707Y-79004251D01*
X132427960Y-78983374D01*
X132427968Y-78983373D01*
X132431591Y-78983126D01*
X132435167Y-78982463D01*
X132435169Y-78982463D01*
X132745580Y-78924932D01*
X132745584Y-78924931D01*
X132749145Y-78924271D01*
X132982789Y-78852393D01*
X133053779Y-78851481D01*
X133072588Y-78858397D01*
X133107023Y-78874272D01*
X133107027Y-78874273D01*
X133111067Y-78876136D01*
X133115335Y-78877412D01*
X133115334Y-78877412D01*
X133378216Y-78956030D01*
X133378218Y-78956031D01*
X133382490Y-78957308D01*
X133386894Y-78957970D01*
X133386898Y-78957971D01*
X133659221Y-78998913D01*
X133659227Y-78998914D01*
X133662642Y-78999427D01*
X133666099Y-78999563D01*
X133666101Y-78999563D01*
X133672163Y-78999801D01*
X133689950Y-79000500D01*
X135550050Y-79000500D01*
X135567837Y-78999801D01*
X135573899Y-78999563D01*
X135573901Y-78999563D01*
X135577358Y-78999427D01*
X135580773Y-78998914D01*
X135580779Y-78998913D01*
X135853102Y-78957971D01*
X135853106Y-78957970D01*
X135857510Y-78957308D01*
X135861782Y-78956031D01*
X135861784Y-78956030D01*
X136124666Y-78877412D01*
X136124665Y-78877412D01*
X136128933Y-78876136D01*
X136132973Y-78874273D01*
X136132977Y-78874272D01*
X136382158Y-78759397D01*
X136386210Y-78757529D01*
X136624209Y-78603856D01*
X136838180Y-78418180D01*
X137023856Y-78204209D01*
X137177529Y-77966210D01*
X137269615Y-77766461D01*
X137294272Y-77712977D01*
X137294273Y-77712973D01*
X137296136Y-77708933D01*
X137377308Y-77437510D01*
X137419427Y-77157358D01*
X137420500Y-77130050D01*
X137420500Y-75269950D01*
X137419427Y-75242642D01*
X137377308Y-74962490D01*
X137350958Y-74874379D01*
X137297412Y-74695334D01*
X137296136Y-74691067D01*
X137286072Y-74669235D01*
X137179397Y-74437842D01*
X137177529Y-74433790D01*
X137023856Y-74195791D01*
X136838180Y-73981820D01*
X136624209Y-73796144D01*
X136539958Y-73741744D01*
X136537802Y-73740352D01*
X136491424Y-73686597D01*
X136481470Y-73616302D01*
X136511101Y-73551784D01*
X136570909Y-73513528D01*
X136606149Y-73508500D01*
X157365500Y-73508500D01*
X157433621Y-73528502D01*
G37*
G04 #@! TD.AperFunction*
G04 #@! TA.AperFunction,Conductor*
G36*
X136027578Y-122680407D02*
G01*
X136029950Y-122680500D01*
X136260874Y-122680500D01*
X136328995Y-122700502D01*
X136375488Y-122754158D01*
X136385592Y-122824432D01*
X136368307Y-122872335D01*
X136246692Y-123070793D01*
X136194044Y-123118424D01*
X136124003Y-123130031D01*
X136058805Y-123101928D01*
X136029815Y-123067391D01*
X135952677Y-122932154D01*
X135914850Y-122880658D01*
X135890642Y-122813917D01*
X135906360Y-122744682D01*
X135957014Y-122694936D01*
X136021342Y-122680162D01*
X136027578Y-122680407D01*
G37*
G04 #@! TD.AperFunction*
G04 #@! TA.AperFunction,NonConductor*
G36*
X97710649Y-73528502D02*
G01*
X97757142Y-73582158D01*
X97767246Y-73652432D01*
X97737752Y-73717012D01*
X97708089Y-73740989D01*
X97708562Y-73741744D01*
X97434974Y-73913366D01*
X97432140Y-73915636D01*
X97432135Y-73915640D01*
X97349529Y-73981820D01*
X97182924Y-74115296D01*
X96955754Y-74344858D01*
X96756474Y-74599008D01*
X96754582Y-74602096D01*
X96754574Y-74602107D01*
X96741933Y-74622736D01*
X96689286Y-74670368D01*
X96619244Y-74681975D01*
X96554046Y-74653872D01*
X96514392Y-74594982D01*
X96508500Y-74556902D01*
X96508500Y-73634500D01*
X96528502Y-73566379D01*
X96582158Y-73519886D01*
X96634500Y-73508500D01*
X97642528Y-73508500D01*
X97710649Y-73528502D01*
G37*
G04 #@! TD.AperFunction*
G04 #@! TA.AperFunction,NonConductor*
G36*
X115490649Y-73528502D02*
G01*
X115537142Y-73582158D01*
X115547246Y-73652432D01*
X115517752Y-73717012D01*
X115488089Y-73740989D01*
X115488562Y-73741744D01*
X115214974Y-73913366D01*
X115212140Y-73915636D01*
X115212135Y-73915640D01*
X115129529Y-73981820D01*
X114962924Y-74115296D01*
X114735754Y-74344858D01*
X114536474Y-74599008D01*
X114534581Y-74602097D01*
X114534579Y-74602100D01*
X114406692Y-74810793D01*
X114354044Y-74858424D01*
X114284003Y-74870031D01*
X114218805Y-74841928D01*
X114189815Y-74807391D01*
X114112677Y-74672154D01*
X114076376Y-74622736D01*
X113923622Y-74414786D01*
X113923620Y-74414783D01*
X113921479Y-74411869D01*
X113701632Y-74175285D01*
X113634415Y-74117876D01*
X113541479Y-74038502D01*
X113456049Y-73965538D01*
X113187986Y-73785407D01*
X113184777Y-73783751D01*
X113184769Y-73783746D01*
X113112539Y-73746466D01*
X113061180Y-73697448D01*
X113044475Y-73628445D01*
X113067727Y-73561364D01*
X113123555Y-73517503D01*
X113170329Y-73508500D01*
X115422528Y-73508500D01*
X115490649Y-73528502D01*
G37*
G04 #@! TD.AperFunction*
G04 #@! TA.AperFunction,NonConductor*
G36*
X134101621Y-120000502D02*
G01*
X134148114Y-120054158D01*
X134159500Y-120106500D01*
X134159500Y-120810050D01*
X134160573Y-120837358D01*
X134161086Y-120840773D01*
X134161087Y-120840779D01*
X134200374Y-121102092D01*
X134202692Y-121117510D01*
X134283864Y-121388933D01*
X134358863Y-121551616D01*
X134369217Y-121621851D01*
X134339955Y-121686536D01*
X134280366Y-121725133D01*
X134213741Y-121726569D01*
X134161831Y-121713531D01*
X134125651Y-121704443D01*
X134105805Y-121701830D01*
X133809055Y-121662762D01*
X133809047Y-121662761D01*
X133805451Y-121662288D01*
X133671081Y-121660177D01*
X133486170Y-121657272D01*
X133486166Y-121657272D01*
X133482528Y-121657215D01*
X133478913Y-121657576D01*
X133478908Y-121657576D01*
X133269056Y-121678522D01*
X133161163Y-121689291D01*
X133036147Y-121716549D01*
X132889387Y-121748548D01*
X132845614Y-121758092D01*
X132842187Y-121759265D01*
X132842181Y-121759267D01*
X132543495Y-121861530D01*
X132543490Y-121861532D01*
X132540064Y-121862705D01*
X132536796Y-121864264D01*
X132536788Y-121864267D01*
X132385483Y-121936436D01*
X132315387Y-121947709D01*
X132273449Y-121934676D01*
X132204216Y-121898942D01*
X132200996Y-121897280D01*
X131898883Y-121783121D01*
X131895362Y-121782237D01*
X131895357Y-121782235D01*
X131745433Y-121744577D01*
X131585651Y-121704443D01*
X131565805Y-121701830D01*
X131269055Y-121662762D01*
X131269047Y-121662761D01*
X131265451Y-121662288D01*
X131131081Y-121660177D01*
X130946170Y-121657272D01*
X130946166Y-121657272D01*
X130942528Y-121657215D01*
X130938913Y-121657576D01*
X130938908Y-121657576D01*
X130729056Y-121678522D01*
X130621163Y-121689291D01*
X130462125Y-121723967D01*
X130391308Y-121718936D01*
X130334452Y-121676416D01*
X130309609Y-121609908D01*
X130324668Y-121540526D01*
X130348551Y-121509462D01*
X130521686Y-121345162D01*
X130568936Y-121300323D01*
X130776101Y-121052557D01*
X130778089Y-121049531D01*
X130951427Y-120785649D01*
X130951432Y-120785640D01*
X130953414Y-120782623D01*
X131025998Y-120638305D01*
X131096900Y-120497334D01*
X131096903Y-120497326D01*
X131098527Y-120494098D01*
X131187765Y-120250246D01*
X131208269Y-120194216D01*
X131208270Y-120194212D01*
X131209517Y-120190805D01*
X131211143Y-120184032D01*
X131236820Y-120077085D01*
X131272172Y-120015516D01*
X131335198Y-119982834D01*
X131359338Y-119980500D01*
X134033500Y-119980500D01*
X134101621Y-120000502D01*
G37*
G04 #@! TD.AperFunction*
G04 #@! TA.AperFunction,NonConductor*
G36*
X96717012Y-126002604D02*
G01*
X96738340Y-126026461D01*
X96841364Y-126176363D01*
X96841370Y-126176370D01*
X96843421Y-126179355D01*
X96845809Y-126182092D01*
X96933549Y-126282671D01*
X96963257Y-126347153D01*
X96953387Y-126417460D01*
X96907073Y-126471270D01*
X96838600Y-126491500D01*
X96634500Y-126491500D01*
X96566379Y-126471498D01*
X96519886Y-126417842D01*
X96508500Y-126365500D01*
X96508500Y-126097828D01*
X96528502Y-126029707D01*
X96582158Y-125983214D01*
X96652432Y-125973110D01*
X96717012Y-126002604D01*
G37*
G04 #@! TD.AperFunction*
G04 #@! TA.AperFunction,NonConductor*
G36*
X136219418Y-125820966D02*
G01*
X136252883Y-125861048D01*
X136280493Y-125913193D01*
X136282545Y-125916178D01*
X136282550Y-125916187D01*
X136461364Y-126176363D01*
X136461370Y-126176370D01*
X136463421Y-126179355D01*
X136465809Y-126182092D01*
X136553549Y-126282671D01*
X136583257Y-126347153D01*
X136573387Y-126417460D01*
X136527073Y-126471270D01*
X136458600Y-126491500D01*
X135821572Y-126491500D01*
X135753451Y-126471498D01*
X135706958Y-126417842D01*
X135696854Y-126347568D01*
X135724909Y-126284677D01*
X135849779Y-126135334D01*
X135852101Y-126132557D01*
X136029414Y-125862623D01*
X136031045Y-125859380D01*
X136032411Y-125857014D01*
X136083793Y-125808019D01*
X136153506Y-125794581D01*
X136219418Y-125820966D01*
G37*
G04 #@! TD.AperFunction*
M02*
